<?xml version="1.0" encoding="UTF-8" standalone="no"?>
<!-- Created with Inkscape (http://www.inkscape.org/) -->

<svg
   width="149.99998mm"
   height="150.00002mm"
   viewBox="0 0 149.99998 150.00002"
   version="1.1"
   id="svg1"
   xml:space="preserve"
   xmlns:xlink="http://www.w3.org/1999/xlink"
   xmlns="http://www.w3.org/2000/svg"
   xmlns:svg="http://www.w3.org/2000/svg"><defs
     id="defs1"><linearGradient
       id="linearGradient26"><stop
         style="stop-color:#ffffff;stop-opacity:0.91310316;"
         offset="0"
         id="stop25" /><stop
         style="stop-color:#ffffff;stop-opacity:0;"
         offset="0.82291359"
         id="stop26" /></linearGradient><linearGradient
       id="linearGradient24"><stop
         style="stop-color:#ffffff;stop-opacity:0.91310316;"
         offset="0"
         id="stop23" /><stop
         style="stop-color:#ffffff;stop-opacity:0;"
         offset="0.82291359"
         id="stop24" /></linearGradient><linearGradient
       id="linearGradient22"><stop
         style="stop-color:#ffffff;stop-opacity:0.91310316;"
         offset="0"
         id="stop21" /><stop
         style="stop-color:#ffffff;stop-opacity:0;"
         offset="0.82291359"
         id="stop22" /></linearGradient><linearGradient
       id="linearGradient20"><stop
         style="stop-color:#ffffff;stop-opacity:0.91310316;"
         offset="0"
         id="stop19" /><stop
         style="stop-color:#ffffff;stop-opacity:0;"
         offset="0.82291359"
         id="stop20" /></linearGradient><linearGradient
       id="linearGradient8"><stop
         style="stop-color:#000000;stop-opacity:0.91310316;"
         offset="0"
         id="stop8" /><stop
         style="stop-color:#4a584b;stop-opacity:0;"
         offset="0.82291359"
         id="stop9" /></linearGradient><linearGradient
       id="linearGradient340"><stop
         style="stop-color:#d5491d;stop-opacity:1;"
         offset="0"
         id="stop340" /><stop
         style="stop-color:#d5491d;stop-opacity:0;"
         offset="1"
         id="stop341" /></linearGradient><linearGradient
       xlink:href="#linearGradient340"
       id="linearGradient341"
       x1="107.55233"
       y1="114.14638"
       x2="117.21344"
       y2="114.14638"
       gradientUnits="userSpaceOnUse" /><radialGradient
       xlink:href="#linearGradient8"
       id="radialGradient9"
       cx="-51.917107"
       cy="105.27496"
       fx="-51.917107"
       fy="105.27496"
       r="33.250004"
       gradientUnits="userSpaceOnUse"
       gradientTransform="translate(211.14801,-169.9586)" /><radialGradient
       xlink:href="#linearGradient8"
       id="radialGradient10"
       gradientUnits="userSpaceOnUse"
       gradientTransform="translate(219.1486,-241.83301)"
       cx="-51.917107"
       cy="105.27496"
       fx="-51.917107"
       fy="105.27496"
       r="33.250004" /><radialGradient
       xlink:href="#linearGradient8"
       id="radialGradient11"
       gradientUnits="userSpaceOnUse"
       gradientTransform="translate(180.92262,-158.74051)"
       cx="-44.468479"
       cy="105.45216"
       fx="-44.468479"
       fy="105.45216"
       r="33.250004" /><radialGradient
       xlink:href="#linearGradient8"
       id="radialGradient13"
       gradientUnits="userSpaceOnUse"
       gradientTransform="translate(144.97229,-189.41868)"
       cx="-51.917107"
       cy="105.27496"
       fx="-51.917107"
       fy="105.27496"
       r="33.250004" /><radialGradient
       xlink:href="#linearGradient8"
       id="radialGradient14"
       gradientUnits="userSpaceOnUse"
       gradientTransform="translate(195.29884,-241.6703)"
       cx="-51.917107"
       cy="105.27496"
       fx="-51.917107"
       fy="105.27496"
       r="33.250004" /><radialGradient
       xlink:href="#linearGradient8"
       id="radialGradient15"
       gradientUnits="userSpaceOnUse"
       gradientTransform="translate(228.00585,-175.04132)"
       cx="-51.917107"
       cy="105.27496"
       fx="-51.917107"
       fy="105.27496"
       r="33.250004" /><radialGradient
       xlink:href="#linearGradient8"
       id="radialGradient16"
       gradientUnits="userSpaceOnUse"
       gradientTransform="translate(117.2564,-241.4948)"
       cx="-51.917107"
       cy="105.27496"
       fx="-51.917107"
       fy="105.27496"
       r="33.250004" /><radialGradient
       xlink:href="#linearGradient8"
       id="radialGradient17"
       gradientUnits="userSpaceOnUse"
       gradientTransform="translate(144.44181,-259.02395)"
       cx="-51.917107"
       cy="105.27496"
       fx="-51.917107"
       fy="105.27496"
       r="33.250004" /><radialGradient
       xlink:href="#linearGradient8"
       id="radialGradient18"
       gradientUnits="userSpaceOnUse"
       gradientTransform="translate(186.11699,-260.21267)"
       cx="-51.917107"
       cy="105.27496"
       fx="-51.917107"
       fy="105.27496"
       r="33.250004" /><radialGradient
       xlink:href="#linearGradient20"
       id="radialGradient19"
       gradientUnits="userSpaceOnUse"
       gradientTransform="translate(146.4996,-132.6622)"
       cx="-51.917107"
       cy="105.27496"
       fx="-51.917107"
       fy="105.27496"
       r="33.250004" /><radialGradient
       xlink:href="#linearGradient22"
       id="radialGradient20"
       gradientUnits="userSpaceOnUse"
       gradientTransform="translate(225.30759,-154.72597)"
       cx="-50.224888"
       cy="112.08044"
       fx="-50.224888"
       fy="112.08044"
       r="33.250004" /><radialGradient
       xlink:href="#linearGradient8"
       id="radialGradient22"
       gradientUnits="userSpaceOnUse"
       gradientTransform="translate(144.8727,-237.37398)"
       cx="-51.917107"
       cy="105.27496"
       fx="-51.917107"
       fy="105.27496"
       r="33.250004" /><radialGradient
       xlink:href="#linearGradient24"
       id="radialGradient23"
       gradientUnits="userSpaceOnUse"
       gradientTransform="translate(224.05572,-248.49133)"
       cx="-51.917107"
       cy="105.27496"
       fx="-51.917107"
       fy="105.27496"
       r="33.250004" /><radialGradient
       xlink:href="#linearGradient26"
       id="radialGradient24"
       gradientUnits="userSpaceOnUse"
       gradientTransform="translate(222.43682,-137.1971)"
       cx="-54.081909"
       cy="107.97716"
       fx="-54.081909"
       fy="107.97716"
       r="33.250004" /></defs><g
     id="layer1"
     transform="translate(-29.999999,-73.500007)"><g
       id="g26"><rect
         style="fill:none;fill-opacity:1;stroke:none;stroke-width:3.70517;stroke-opacity:1"
         id="rect26"
         width="150"
         height="150"
         x="30"
         y="73.5"
         ry="3.5904449e-14" /><g
         id="g1"
         transform="translate(12.948769,1.4973615)"><rect
           style="fill:#077875;fill-opacity:1;stroke:none;stroke-width:0.472954;stroke-linecap:butt;stroke-linejoin:miter;stroke-dasharray:none;stroke-opacity:1"
           id="rect351-4"
           width="13.545961"
           height="14.836533"
           x="147.70905"
           y="128.25676" /><rect
           style="opacity:1;fill:#b43425;fill-opacity:1;stroke:none;stroke-width:1;stroke-linecap:butt;stroke-linejoin:miter;stroke-dasharray:none;stroke-opacity:1"
           id="rect353"
           width="10.846861"
           height="18.42087"
           x="140.99159"
           y="128.81975"
           ry="4.2632564e-14" /><rect
           style="opacity:1;fill:#f09415;fill-opacity:1;stroke:#f09415;stroke-width:1;stroke-linecap:butt;stroke-linejoin:miter;stroke-dasharray:none;stroke-opacity:1"
           id="rect355"
           width="13.284498"
           height="16.470043"
           x="138.04636"
           y="104.24583"
           ry="4.2632564e-14" /><rect
           style="opacity:1;fill:#077875;fill-opacity:1;stroke:none;stroke-width:1.42406;stroke-linecap:butt;stroke-linejoin:miter;stroke-dasharray:none;stroke-opacity:1"
           id="rect350"
           width="27.44776"
           height="66.918991"
           x="113.46375"
           y="105.80853"
           ry="4.2632564e-14" /><rect
           style="opacity:1;fill:#1d656d;fill-opacity:1;stroke:none;stroke-width:1.11625;stroke-linecap:butt;stroke-linejoin:miter;stroke-dasharray:none;stroke-opacity:1"
           id="rect349"
           width="16.729357"
           height="66.918991"
           x="107.32531"
           y="114.01061" /><rect
           style="opacity:1;fill:#b43425;fill-opacity:1;stroke:none;stroke-width:1.00543;stroke-linecap:butt;stroke-linejoin:miter;stroke-dasharray:none;stroke-opacity:1"
           id="rect335"
           width="35.348461"
           height="45.786491"
           x="73.130699"
           y="126.89635" /><circle
           style="fill:#f09415;fill-opacity:1;stroke:none;stroke-width:1;stroke-dasharray:none;stroke-opacity:1"
           id="circle332"
           cx="101.08593"
           cy="102.53862"
           r="20" /><path
           id="path293-2-6-1-0-9"
           style="opacity:1;fill:#1d656d;fill-opacity:1;stroke:#1d656d;stroke-width:1;stroke-dasharray:none;stroke-opacity:1"
           d="m 152.06255,155.96826 a 20,20 0 0 1 -19.95847,18.71307 20,20 0 0 1 -2.58589,-0.16795 20,20 0 0 0 11.73675,3.80597 20,20 0 0 0 19.99982,-19.99981 20,20 0 0 0 -0.1385,-2.35128 z" /><path
           id="rect344"
           style="opacity:1;fill:#d5491d;fill-opacity:1;stroke:#d5491d;stroke-width:1;stroke-linecap:butt;stroke-linejoin:miter;stroke-dasharray:none;stroke-opacity:1"
           d="m 123.60589,163.13113 a 20,20 0 0 0 -4.72271,12.90722 20,20 0 0 0 0.13074,2.281 h 4.59197 z" /><path
           style="opacity:1;fill:#f09415;fill-opacity:1;stroke:#f09415;stroke-width:1;stroke-linecap:butt;stroke-linejoin:miter;stroke-dasharray:none;stroke-opacity:1"
           d="m 124.07372,178.36596 16.34171,-0.004 v 9.01163 l -4.48574,7.35947 -14.21139,-7.9435 z"
           id="path339" /><path
           id="path326"
           style="opacity:1;fill:#1d656d;fill-opacity:1;stroke:#1d656d;stroke-width:0.962059;stroke-opacity:1"
           d="m 79.457826,157.13978 c 18.930085,1.96445 33.757954,19.95042 44.148174,21.17941 l -0.028,5.22082 C 110.0985,182.98009 95.838927,162.82409 78.486092,162.12406 Z" /><path
           id="rect324"
           style="opacity:1;fill:#2b5c50;stroke:#2b5c50;stroke-width:0.992102"
           d="m 43.838913,147.39238 18.77255,0.004 c 4.120723,6.61331 14.998895,19.31624 11.509375,30.1428 H 43.838913 Z" /><path
           id="rect312-4"
           style="fill:#4a584b;stroke-width:2.89578"
           d="m 63.681526,177.45236 17.495187,-7.67064 1.403165,20.69848 H 63.681526 Z" /><path
           style="fill:#d5491d;fill-opacity:1;stroke:#d5491d;stroke-width:1;stroke-linecap:butt;stroke-linejoin:miter;stroke-dasharray:none;stroke-opacity:1"
           d="m 78.754426,174.38935 18.537451,0.0809 -0.162771,-4.79179 c 0,0 -8.459521,-5.38457 -18.596202,-7.04497 0,6.15306 0.221522,11.75587 0.221522,11.75587 z"
           id="path320" /><path
           style="fill:#077875;fill-opacity:1;stroke:#077875;stroke-width:1;stroke-linecap:butt;stroke-linejoin:miter;stroke-dasharray:none;stroke-opacity:1"
           d="m 77.569982,162.64338 -16.422251,15.78777 c 0,0 -1.88362,8.04564 2.56104,9.36876 3.023415,-7.56359 6.972573,-9.40795 14.068439,-13.16758 -0.157619,-4.27413 -0.207228,-11.98895 -0.207228,-11.98895 z"
           id="path321" /><rect
           style="fill:#4a584b;fill-opacity:1;stroke:none;stroke-width:0.908927;stroke-dasharray:none;stroke-opacity:1"
           id="rect312"
           width="5.6435838"
           height="5.3606205"
           x="77.838371"
           y="188.19984" /><circle
           style="fill:#4a584b;fill-opacity:1;stroke:#4a584b;stroke-width:1;stroke-dasharray:none;stroke-opacity:1"
           id="circle312"
           cx="98.119591"
           cy="198.0352"
           r="20" /><path
           id="rect298-1-7"
           style="fill:#d5491d;fill-opacity:1;stroke:#d5491d;stroke-width:0.701201;stroke-opacity:1"
           d="m 64.468506,202.86475 h 13.448798 l -0.992188,11.81666 -12.45661,2.4474 z" /><rect
           style="opacity:1;fill:#d5491d;fill-opacity:1;stroke:#d5491d;stroke-width:0.790586;stroke-linecap:butt;stroke-linejoin:miter;stroke-dasharray:none;stroke-opacity:1"
           id="rect323"
           width="3.516706"
           height="14.827643"
           x="63.825241"
           y="202.03696" /><path
           id="path293-2-6"
           style="fill:#f09415;fill-opacity:1;stroke:#f09415;stroke-width:1;stroke-dasharray:none;stroke-opacity:1"
           d="m 78.794157,203.18501 c -2.154154,7.26136 -7.244965,13.08041 -14.70285,14.40239 1.980155,0.63729 3.06718,0.5642 5.147361,0.56414 5.480306,8e-5 11.494483,-1.84664 14.418606,-6.26712 -2.36411,-2.44746 -4.218515,-5.41133 -4.863117,-8.69941 z" /><path
           id="path293-2-6-4"
           style="fill:#d5491d;fill-opacity:1;stroke:#d5491d;stroke-width:1;stroke-dasharray:none;stroke-opacity:1"
           d="m 63.842615,82.141756 c -11.045549,1.03e-4 -19.99971,8.954264 -19.999813,19.999814 -1.52e-4,7.55682 4.258953,14.46847 11.009147,17.86558 h 11.380184 l 2.90835,-17.37104 -0.494027,-20.492804 c -0.957592,0 -4.005191,-0.0015 -4.803841,-0.0015 z m -8.361764,8.509042 a 4.7406535,4.911077 0 0 1 4.740279,4.910811 4.7406535,4.911077 0 0 1 -4.740279,4.911331 4.7406535,4.911077 0 0 1 -4.740796,-4.911331 4.7406535,4.911077 0 0 1 4.740796,-4.910811 z" /><rect
           style="opacity:1;fill:#f09415;fill-opacity:1;stroke:none;stroke-width:1;stroke-linecap:butt;stroke-linejoin:miter;stroke-dasharray:none;stroke-opacity:1"
           id="rect334"
           width="8.8304682"
           height="4.9940104"
           x="92.393326"
           y="82.53862" /><path
           id="circle306"
           style="fill:#077875;fill-opacity:1;stroke:#077875;stroke-width:1;stroke-dasharray:none;stroke-opacity:1"
           d="m 89.146629,82.141756 a 20,20 0 0 0 -1.108977,0.03049 20,20 0 0 1 -18.863448,18.916154 20,20 0 0 0 -0.0279,1.05317 20,20 0 0 0 20.00033,20.00033 20,20 0 0 0 19.999816,-20.00033 20,20 0 0 0 -19.999816,-19.999813 z" /><path
           id="rect329"
           style="opacity:1;fill:#d5491d;stroke:#d5491d;stroke-width:0.962575"
           d="m 88.607307,103.12295 h 37.259113 l -7.28928,14.80409 c -10.55339,12.28909 -20.543332,13.70021 -29.969833,4.23333 z" /><path
           style="opacity:1;fill:#1d656d;fill-opacity:1;stroke:#1d656d;stroke-width:1;stroke-linecap:butt;stroke-linejoin:miter;stroke-dasharray:none;stroke-opacity:1"
           d="m 83.041513,151.916 28.463337,-29.2741 -34.42432,-0.0602 5.499346,29.70851 z"
           id="path327" /><path
           style="opacity:1;fill:#077875;fill-opacity:1;stroke:#077875;stroke-width:1;stroke-linecap:butt;stroke-linejoin:miter;stroke-dasharray:none;stroke-opacity:1"
           d="m 136.90677,190.72785 3.50866,-3.35399 -0.0165,13.92404 z"
           id="path338" /><path
           id="path293-2-6-1-0"
           style="fill:#2b5c50;fill-opacity:1;stroke:#2b5c50;stroke-width:1;stroke-dasharray:none;stroke-opacity:1"
           d="m 100.75509,198.03546 c 1e-4,11.04555 12.25403,20.49971 23.29958,20.49982 9.59475,-6e-5 16.05918,-6.38781 16.34296,-16.73726 h -16.51165 c 0,0 -23.13107,-14.80831 -23.13089,-3.76256 z" /><path
           id="rect318"
           style="fill:#2b5c50;fill-opacity:1;stroke:#2b5c50;stroke-width:1.02868;stroke-linecap:butt;stroke-linejoin:miter;stroke-dasharray:none;stroke-opacity:1"
           d="m 97.61523,182.39662 0.934437,19.52126 25.009713,2.66808 -0.0165,-20.58916 c -2.28273,-0.10473 -4.45563,-0.65424 -6.57109,-1.51833 z" /><path
           id="path336"
           style="opacity:1;fill:#2b5c50;fill-opacity:1;stroke:#2b5c50;stroke-width:0.962059;stroke-opacity:1"
           d="m 108.95279,170.84724 0.039,1.19807 -2.5182,2.68976 c 3.59776,2.63237 7.57585,5.5679 11.64477,7.30498 0.0211,-0.37583 0.0316,-0.75219 0.0315,-1.12861 6e-5,-1.58881 0.17459,-2.94046 -0.19999,-4.48448 -2.78046,-1.44815 -5.71448,-3.37394 -8.99711,-5.57972 z" /><path
           id="path293-2-6-1-0-9-8"
           style="fill:#d5491d;fill-opacity:1;stroke:#d5491d;stroke-width:1;stroke-dasharray:none;stroke-opacity:1"
           d="m 105,174.87647 -6.880408,6.89331 v 19.14147 h 0.01654 c 10.291008,-7e-5 18.902178,-7.80954 19.904728,-18.05161 -4.87995,-1.6536 -9.84021,-5.71031 -13.07594,-8.01825 z" /><rect
           style="fill:#b43425;fill-opacity:1;stroke:#b43425;stroke-width:0.725382;stroke-dasharray:none;stroke-opacity:1"
           id="rect298-1"
           width="14.416804"
           height="14.239879"
           x="63.488407"
           y="188.56253" /><path
           style="fill:#2b5c50;fill-opacity:1;stroke:#2b5c50;stroke-width:1;stroke-dasharray:none;stroke-opacity:1"
           d="m 51.322483,207.04028 12.285984,10.07077 -0.01829,-27.37886 z"
           id="path311" /><path
           id="rect297"
           style="fill:#f09415;fill-opacity:1;stroke:#f09415;stroke-width:0.746747;stroke-dasharray:none;stroke-opacity:1"
           d="m 43.716195,168.28482 v 19.51509 H 63.708773 A 20,20 0 0 0 43.716195,168.28482 Z" /><path
           id="rect297-7"
           style="fill:#1d656d;fill-opacity:1;stroke:#1d656d;stroke-width:0.746747;stroke-dasharray:none;stroke-opacity:1"
           d="M 43.716195,208.06175 V 188.54666 H 63.708773 A 20,20 0 0 1 43.716195,208.06175 Z" /><rect
           style="fill:#d5491d;fill-opacity:1;stroke:#d5491d;stroke-width:1;stroke-dasharray:none;stroke-opacity:1"
           id="rect298"
           width="19.992579"
           height="19.515089"
           x="22.850243"
           y="147.89633" /><path
           id="circle299"
           style="fill:#077875;fill-opacity:1;stroke:#077875;stroke-width:1;stroke-dasharray:none;stroke-opacity:1"
           d="m 42.842863,106.89528 a 20,20 0 0 0 -19.995162,20.00033 20,20 0 0 0 19.995162,19.99982 z" /><path
           id="rect327"
           style="opacity:1;fill:#f09415;stroke:#f09415;stroke-width:1.12469"
           d="m 66.794533,122.70425 h 21.269151 l -0.142619,26.99788 c -6.310288,7.44103 -13.352466,9.21837 -21.126532,5.33203 z" /><rect
           style="fill:#d5491d;fill-opacity:1;stroke:#d5491d;stroke-width:1.34386;stroke-dasharray:none;stroke-opacity:1"
           id="rect303-1"
           width="25.167385"
           height="19.239862"
           x="44.021931"
           y="102.77193" /><rect
           style="fill:#d5491d;fill-opacity:1;stroke:#d5491d;stroke-width:1.12045;stroke-dasharray:none;stroke-opacity:1"
           id="rect303"
           width="17.368965"
           height="19.379549"
           x="43.903049"
           y="127.45657" /><path
           style="opacity:1;fill:#f09415;fill-opacity:1;stroke:#f09415;stroke-width:1;stroke-linecap:butt;stroke-linejoin:miter;stroke-dasharray:none;stroke-opacity:1"
           d="m 43.910718,127.46423 c 17.861911,0 10.504527,28.12253 32.751297,34.01209 0,0 -0.64617,0.63323 0.457109,-0.47005 -16.568851,0 -15.436029,-37.92858 -15.436029,-37.92858 l -17.848593,-0.91834 z"
           id="path324" /><rect
           style="fill:#b43425;fill-opacity:1;stroke:#b43425;stroke-width:1;stroke-dasharray:none;stroke-opacity:1"
           id="rect307"
           width="19.479607"
           height="19.432789"
           x="69.146423"
           y="82.141663" /><path
           id="rect325"
           style="opacity:1;fill:#077875;fill-opacity:1;stroke:#077875;stroke-width:0.962059;stroke-opacity:1"
           transform="rotate(90)"
           d="m 123.06269,-68.166206 c 15.13088,0.338488 28.53689,-0.4801 34.07709,-11.29162 l 2.1367,6.25369 c -5.9939,10.144661 -22.75769,10.848898 -36.21379,10.564162 z" /><path
           id="path306"
           style="fill:#077875;fill-opacity:1;stroke:#077875;stroke-width:1;stroke-dasharray:none;stroke-opacity:1"
           d="m 89.146629,82.141756 a 20,20 0 0 0 -1.108977,0.03049 20,20 0 0 1 -18.863448,18.916154 20,20 0 0 0 -0.0279,1.05317 20,20 0 0 0 20.00033,20.00033 20,20 0 0 0 19.999816,-20.00033 20,20 0 0 0 -19.999816,-19.999813 z" /><path
           id="path307"
           style="fill:#1d656d;fill-opacity:1;stroke:#1d656d;stroke-width:1;stroke-dasharray:none;stroke-opacity:1"
           d="m 88.131866,82.147131 c -0.05577,0 -0.08483,0.0047 -0.146836,0.0047 -0.532913,10.106365 -9.240896,18.242879 -19.338445,18.922669 h 19.479431 z" /><rect
           style="fill:#077875;fill-opacity:1;stroke:#077875;stroke-width:0.988012;stroke-dasharray:none;stroke-opacity:1"
           id="rect308"
           width="20.012318"
           height="19.511986"
           x="69.140312"
           y="102.63591" /><path
           style="fill:#f09415;fill-opacity:1;stroke:none;stroke-width:1;stroke-dasharray:none;stroke-opacity:1"
           d="m 124.05467,201.27499 -25.93508,17.28945 25.93508,0.49993 z"
           id="path314" /><path
           id="path293-2-6-1"
           style="fill:#1d656d;fill-opacity:1;stroke:#1d656d;stroke-width:1;stroke-linecap:butt;stroke-linejoin:miter;stroke-dasharray:none;stroke-opacity:1"
           d="m 98.11959,201.91992 2e-6,16.11535 c 8.658498,-1.1e-4 15.661148,-8.40344 24.446798,-16.23111 z" /><path
           id="circle311"
           style="fill:#2b5c50;fill-opacity:1;stroke:#2b5c50;stroke-width:1;stroke-dasharray:none;stroke-opacity:1"
           d="m 97.12017,189.10215 c -8.44433,0.32355 -15.812665,5.93757 -18.331698,14.06219 0.951783,3.58725 2.174469,6.16763 4.868954,8.71988 3.134271,-4.62171 7.901677,-9.11694 13.462744,-10.77867 z m 15.95045,14.62702 c 1.17052,0.71909 2.27218,1.56189 3.28403,2.52026 0.33597,-0.74548 0.6259,-1.51087 0.86817,-2.29185 -0.0203,-0.0763 -0.0409,-0.15248 -0.062,-0.22841 z" /><path
           style="fill:#1d656d;fill-opacity:1;stroke:none;stroke-width:1;stroke-linejoin:bevel;stroke-dasharray:none;stroke-opacity:1"
           d="m 103.50681,201.27499 h 20.54786 l -8.9824,7.37184 z"
           id="path315" /><rect
           style="fill:#f09415;fill-opacity:1;stroke:#f09415;stroke-width:1.30363;stroke-linecap:butt;stroke-linejoin:miter;stroke-dasharray:none;stroke-opacity:1"
           id="rect317"
           width="18.04764"
           height="12.019724"
           x="78.920135"
           y="175.52829" /><path
           style="fill:#b43425;fill-opacity:1;stroke:#b43425;stroke-width:1;stroke-linecap:butt;stroke-linejoin:miter;stroke-dasharray:none;stroke-opacity:1"
           d="m 98.11959,181.76978 c 0,0 3.45014,-3.46304 6.88041,-6.89331 -3.07541,-2.10646 -3.99401,-3.22472 -6.880409,-4.6736 z"
           id="path319" /><path
           id="path293-2-6-1-0-0"
           style="baseline-shift:baseline;display:inline;overflow:visible;opacity:1;vector-effect:none;fill:#4a584b;fill-opacity:1;enable-background:accumulate;stop-color:#000000;stop-opacity:1"
           d="M 71.624807,160.18803 61.493414,169.86 c 0,0 -1.902199,1.91326 -2.973989,2.76874 l -0.0894,0.0904 -0.04289,0.007 c -2.854879,2.23331 -6.443478,3.57704 -10.36991,3.57704 -1.623627,0 -3.192017,-0.22691 -4.67465,-0.65112 v 6.52518 c 1.510555,0.31164 3.074303,0.47542 4.67465,0.47542 5.868563,0 11.116902,-2.11843 15.211003,-5.75729 8.2568,-7.33868 8.308509,-9.93648 8.39658,-16.70761 z" /><path
           id="path323"
           style="fill:#4a584b;fill-opacity:1;stroke:#4a584b;stroke-width:1;stroke-dasharray:none;stroke-opacity:1"
           d="m 124.55415,184.15 v 16.64808 l 15.82459,0.003 c -0.57066,-8.25293 -8.6844,-15.4597 -15.82459,-16.651 z" /><path
           id="circle323"
           style="fill:#1d656d;fill-opacity:1;stroke:#1d656d;stroke-width:1;stroke-dasharray:none;stroke-opacity:1"
           d="m 124.55415,184.15 v 16.03295 l 11.0784,-9.64678 c -2.89445,-3.28369 -6.78625,-5.52713 -11.0784,-6.38617 z" /><path
           style="opacity:1;fill:#4a584b;fill-opacity:1;stroke:#4a584b;stroke-width:1;stroke-linecap:butt;stroke-linejoin:miter;stroke-dasharray:none;stroke-opacity:1"
           d="M 62.550403,177.08267 138.60058,99.919962 134.60588,95.730723 57.044166,174.97251 Z"
           id="path322" /><path
           id="path293-2-6-1-0-9-7-6"
           style="fill:#1d656d;fill-opacity:1;stroke:#1d656d;stroke-width:1;stroke-dasharray:none;stroke-opacity:1"
           d="m 124.44563,75.522005 c -6.43792,2e-6 -12.18989,2.68983 -15.9475,7.917368 7.75524,2.954255 12.588,10.800195 12.58802,19.099067 -8e-5,2.18959 -0.35971,4.3643 -1.06454,6.43734 -1.64557,3.74967 -4.35632,6.06888 -4.35632,6.06888 l 6.74998,-0.18655 h 2.94194 1.27589 c 1.61616,-0.17127 3.16859,-0.51807 4.63641,-1.02113 h -2.21899 V 76.054789 c -1.4784,-0.348351 -3.02012,-0.53281 -4.60489,-0.532784 z" /><path
           id="rect310"
           style="fill:#d5491d;fill-opacity:1;stroke:#d5491d;stroke-width:0.898167;stroke-dasharray:none;stroke-opacity:1"
           d="m 124.4458,75.019776 7e-5,20.582698 16.46565,9.1e-5 C 134.5253,93.822183 125.87,83.003201 124.4458,75.019776 Z" /><path
           id="rect309"
           style="fill:#077875;fill-opacity:1;stroke:#077875;stroke-width:0.898167;stroke-dasharray:none;stroke-opacity:1"
           d="m 124.44587,75.521887 a 16.066228,20.08442 0 0 0 16.064,20.080587 V 75.521887 Z" /><path
           id="circle302"
           style="fill:#1d656d;fill-opacity:1;stroke:#1d656d;stroke-width:1;stroke-dasharray:none;stroke-opacity:1"
           d="m 43.842802,106.91932 -0.0083,15.24003 17.790128,-0.0288 c -1.582682,-9.17632 -9.765276,-14.8119 -17.78186,-15.21118 z" /><rect
           style="fill:#d5491d;fill-opacity:1;stroke:#d5491d;stroke-width:0.555615;stroke-dasharray:none;stroke-opacity:1"
           id="rect326"
           width="17.405508"
           height="4.7554517"
           x="50.963108"
           y="100.39425" /><rect
           style="opacity:1;fill:#1d656d;fill-opacity:1;stroke:#1d656d;stroke-width:1.25465;stroke-linecap:butt;stroke-linejoin:miter;stroke-dasharray:none;stroke-opacity:1"
           id="rect328"
           width="18.711128"
           height="10.359634"
           x="69.287575"
           y="111.641" /><path
           id="path330"
           style="fill:#b43425;fill-opacity:1;stroke:#b43425;stroke-width:1.04693;stroke-dasharray:none;stroke-opacity:1"
           d="m 124.5861,114.12255 -0.0151,-17.58113 15.32384,-0.115442 c -6.54567,8.369742 -8.83886,11.558232 -15.30871,17.696572 z" /><path
           id="path331"
           style="fill:#1d656d;fill-opacity:1;stroke:#1d656d;stroke-width:0.90005;stroke-dasharray:none;stroke-opacity:1"
           d="m 124.94055,114.90761 c 4.64208,-5.9631 9.3383,-10.29767 15.57385,-17.805421 l 0.0265,17.856581 z" /><path
           style="opacity:1;fill:url(#linearGradient341);fill-opacity:1;stroke:#d5491d;stroke-width:1;stroke-linecap:butt;stroke-linejoin:miter;stroke-dasharray:none;stroke-opacity:1"
           d="m 112.91094,116.46628 2.02762,-2.09772 -2.62294,-2.92937 -4.29948,5.14284 z"
           id="path340" /><path
           id="rect343"
           style="opacity:1;fill:#2b5c50;fill-opacity:1;stroke:#2b5c50;stroke-width:1.00284;stroke-linecap:butt;stroke-linejoin:miter;stroke-dasharray:none;stroke-opacity:1"
           d="m 138.88351,156.03854 c -5.39568,-1e-4 -10.56249,2.17993 -14.32729,6.04511 v 15.27658 h 15.85381 L 140.38664,155.98 c -0.50791,-0.0389 -0.99373,0.0586 -1.50313,0.0585 z" /><path
           id="rect345"
           style="opacity:1;fill:#b43425;fill-opacity:1;stroke:#b43425;stroke-width:1;stroke-linecap:butt;stroke-linejoin:miter;stroke-dasharray:none;stroke-opacity:1"
           d="m 141.40946,171.07018 v 21.87153 h 19.75796 a 20,20 0 0 0 0.0873,-1.87224 20,20 0 0 0 -19.8453,-19.99929 z" /><rect
           style="opacity:1;fill:#b43425;fill-opacity:1;stroke:none;stroke-width:1;stroke-linecap:butt;stroke-linejoin:miter;stroke-dasharray:none;stroke-opacity:1"
           id="rect348"
           width="10.92552"
           height="18.630138"
           x="140.91151"
           y="155.46835" /><path
           id="path346"
           style="opacity:1;fill:#d5491d;fill-opacity:1;stroke:#d5491d;stroke-width:1;stroke-linecap:butt;stroke-linejoin:miter;stroke-dasharray:none;stroke-opacity:1"
           d="m 141.40946,171.07018 v 13.98564 l 10.42758,-10.95732 c -3.2839,-2.24823 -6.44794,-2.99751 -10.42758,-3.02832 z" /><path
           id="circle348-9"
           style="fill:#077875;fill-opacity:1;stroke:#077875;stroke-width:1;stroke-dasharray:none;stroke-opacity:1"
           d="m 151.35872,92.069316 c -4.48561,1.421478 -7.38381,4.412083 -9.90431,8.385534 v 5.35368 l 9.90431,-0.0331 z" /><rect
           style="opacity:1;fill:#d5491d;fill-opacity:1;stroke:none;stroke-width:0.389183;stroke-linecap:butt;stroke-linejoin:miter;stroke-dasharray:none;stroke-opacity:1"
           id="rect351"
           width="10.92964"
           height="12.45102"
           x="140.90945"
           y="143.09329" /><path
           id="circle351"
           style="opacity:1;fill:#b43425;fill-opacity:1;stroke:#b43425;stroke-width:1;stroke-dasharray:none;stroke-opacity:1"
           d="m 151.32668,112.67478 c -2.70232,3.6277 -5.54207,6.18255 -9.91545,7.33857 v 22.47769 c 4.36566,-1.14166 7.21607,-3.67797 9.92714,-7.28525 z" /><ellipse
           style="opacity:1;fill:#077875;fill-opacity:1;stroke:#077875;stroke-width:1;stroke-linecap:butt;stroke-linejoin:miter;stroke-dasharray:none;stroke-opacity:1"
           id="path356"
           cx="148.39264"
           cy="202.19608"
           rx="4.7406535"
           ry="4.911077" /><ellipse
           style="fill:#2b5c50;fill-opacity:1;stroke:#2b5c50;stroke-width:1;stroke-linecap:butt;stroke-linejoin:miter;stroke-dasharray:none;stroke-opacity:1"
           id="path356-5"
           cx="31.675148"
           cy="190.88016"
           rx="4.7406535"
           ry="4.911077" /><path
           id="path357"
           style="baseline-shift:baseline;display:inline;overflow:visible;opacity:1;vector-effect:none;fill:#4a584b;enable-background:accumulate;stop-color:#000000;stop-opacity:1"
           d="m 27.27172,93.929667 c -1.458987,-0.01645 -2.673114,0.02157 -3.556888,0.06718 v 4.506701 c 2.374584,-0.136812 8.210427,-0.262821 14.62288,1.168404 3.622649,0.808558 9.390624,4.372128 15.756144,7.872908 6.36552,3.50079 13.503439,6.95805 20.953243,7.09569 5.496332,0.10154 9.440752,-1.77672 13.447241,-3.52899 4.006489,-1.75227 8.203946,-3.47616 15.09934,-3.7915 1.6778,-0.0767 4.01182,-0.11854 5.38882,-0.13797 0.37104,-1.44665 0.58585,-2.95591 0.62528,-4.50877 -1.14351,0.0134 -4.09082,0.0556 -6.21926,0.15296 -7.583106,0.34679 -12.611919,2.3744 -16.699238,4.16202 -4.087318,1.78762 -7.103816,3.23663 -11.558467,3.15433 -6.069047,-0.11213 -12.677163,-3.13379 -18.869133,-6.53913 -6.191971,-3.40534 -11.795565,-7.17513 -16.943152,-8.324044 -4.5881,-1.02404 -8.890646,-1.314195 -12.04681,-1.349789 z" /><path
           id="path8"
           style="fill:url(#radialGradient9);fill-opacity:1;stroke:none;stroke-width:4.50001;stroke-opacity:1"
           d="m 144.65464,-92.043218 10.78042,8.929142 9.1906,7.744728 c 0,0 2.20975,1.795554 3.15109,2.792778 2.68721,2.824254 3.83018,6.452863 4.35356,10.270335 0.13453,1.618044 -0.024,3.017313 -0.32393,4.529996 l 5.6817,-0.542903 c 0.18541,-1.531182 0.21903,-3.103121 0.0865,-4.697968 -0.74054,-8.909989 -5.72262,-14.292113 -13.35931,-20.10151 L 150.582,-94.452574 a 31,31 0 0 0 -5.92736,2.409356 z"
           transform="rotate(94.752687)" /><path
           id="circle10"
           style="fill:url(#radialGradient10);fill-opacity:1;stroke:none;stroke-width:4.50001;stroke-opacity:1"
           d="m 179.35142,-151.54708 10.31285,10.09741 -1.18457,-15.08354 c -4.77403,0.73122 -6.87781,2.53286 -9.12828,4.98613 z"
           transform="rotate(94.752687)" /><path
           id="circle11"
           style="fill:url(#radialGradient11);fill-opacity:1;stroke:none;stroke-width:4.50001;stroke-opacity:1"
           d="m 143.26896,-55.432084 16.49002,-1.417927 c -0.9954,-8.042503 -4.79177,-15.330744 -11.12746,-20.383641 -1.94991,1.923757 -4.43166,3.560543 -6.73991,4.915518 z"
           transform="rotate(94.752687)" /><path
           id="circle13"
           style="fill:url(#radialGradient13);fill-opacity:1;stroke:none;stroke-width:4.50001;stroke-opacity:1"
           d="m 93.396551,-53.145731 a 31,31 0 0 0 5.149028,-0.488246 c 1.19452,-2.774802 2.684691,-5.907532 4.147551,-9.184506 2.96134,-6.633691 5.8153,-14.033518 5.33522,-21.469111 -0.35421,-5.485847 -2.55282,-9.261082 -4.63102,-13.108611 -2.07821,-3.847525 -4.143948,-7.887715 -5.029521,-14.733275 -0.100905,-0.77996 -0.206298,-1.70408 -0.30334,-2.60693 a 31,31 0 0 0 -4.567274,-0.40431 c 0.122118,1.17317 0.267382,2.49122 0.409281,3.58802 0.973895,7.5283 3.411195,12.371827 5.531323,16.296979 2.120131,3.925151 3.814091,6.81122 4.101161,11.257373 0.39111,6.05747 -2.07266,12.893224 -4.953252,19.346053 -1.8151,4.066011 -3.793985,7.911069 -5.189157,11.506564 z"
           transform="rotate(94.752687)" /><path
           id="circle14"
           style="fill:url(#radialGradient14);fill-opacity:1;stroke:none;stroke-width:4.50001;stroke-opacity:1"
           d="m 143.83617,-152.45075 c 0.042,0.37259 0.12708,0.73547 0.15866,1.11621 0.44696,5.37713 3.04759,10.34555 7.21141,13.77716 l 15.22406,-1.26574 -1.31356,-15.7993 -21.30465,1.79462 c 8.2e-4,0.12734 0.0101,0.25286 0.0241,0.37705 z"
           transform="rotate(94.752687)" /><path
           id="circle15"
           style="fill:url(#radialGradient15);fill-opacity:1;stroke:none;stroke-width:4.50001;stroke-opacity:1"
           d="m 184.27623,-59.187902 19.44799,-1.616922 a 20,20 0 0 0 -21.10447,-18.306914 z"
           transform="rotate(94.752687)" /><path
           id="circle16"
           style="fill:url(#radialGradient16);fill-opacity:1;stroke:none;stroke-width:4.50001;stroke-opacity:1"
           d="m 84.503628,-147.40319 1.384479,15.26137 10.284088,-0.86384 a 31,31 0 0 0 0.167296,-3.21438 31,31 0 0 0 -0.180763,-3.34049 c -3.173109,-2.34036 -6.476892,-4.44445 -11.6551,-7.84266 z"
           transform="rotate(94.752687)" /><path
           id="path16"
           style="fill:#1d656d;fill-opacity:1;stroke:#1d656d;stroke-width:0.90005;stroke-dasharray:none;stroke-opacity:1"
           d="m 124.94055,114.90761 c 4.64208,-5.9631 9.3383,-10.29767 15.57385,-17.805421 l 0.0265,17.856581 z" /><path
           id="circle17"
           style="fill:url(#radialGradient17);fill-opacity:1;stroke:none;stroke-width:4.50001;stroke-opacity:1"
           d="m 99.749194,-160.14202 c 3.839126,2.39245 6.620496,5.01098 8.134896,9.27354 l 15.6,-1.297 a 31,31 0 0 0 0.0405,-1.58338 31,31 0 0 0 -1.08205,-8.11864 c -0.0798,-0.051 -0.16011,-0.10234 -0.2409,-0.15317 z"
           transform="rotate(94.752687)" /><path
           id="circle18"
           style="fill:url(#radialGradient18);fill-opacity:1;stroke:none;stroke-width:4.50001;stroke-opacity:1"
           d="m 143.25879,-153.30813 18.56581,-1.54357 -0.90527,-10.88838 -18.56581,1.54357 z"
           transform="rotate(94.752687)" /><path
           id="circle19"
           style="fill:url(#radialGradient19);fill-opacity:1;stroke:none;stroke-width:4.50001;stroke-opacity:1"
           d="m 91.347104,-34.960487 c 0.104491,1.455333 0.242976,2.662136 0.361654,3.539093 l 4.491206,-0.373403 c -0.333087,-2.355084 -0.942191,-8.16042 -0.04719,-14.669409 0.375157,-2.728357 2.163737,-6.759286 4.271476,-11.367523 a 31,31 0 0 0 -4.755598,-0.536445 c -1.878157,4.038269 -3.496389,7.813081 -3.974537,11.290462 -0.640372,4.657171 -0.573042,8.968964 -0.347011,12.117225 z"
           transform="rotate(94.752687)" /><path
           id="circle20"
           style="fill:url(#radialGradient20);fill-opacity:1;stroke:none;stroke-width:4.50001;stroke-opacity:1"
           d="m 161.23553,-77.968539 2.94531,2.612839 c 0,0 2.06437,1.737118 3.00571,2.734342 l 0.0975,0.0816 0.0103,0.04219 c 2.46217,2.660022 4.09862,6.124946 4.42394,10.037878 0.13453,1.618044 0.0383,3.199842 -0.26156,4.712525 l 6.50274,-0.540643 c 0.18541,-1.531182 0.21907,-3.103124 0.0865,-4.697968 -0.48624,-5.848385 -3.03221,-10.903112 -6.99777,-14.681639 -0.94329,-0.898794 -1.81119,-1.689254 -2.61981,-2.383739 a 31,31 0 0 0 -7.19281,2.082617 z"
           transform="rotate(94.752687)" /><path
           id="circle22"
           style="fill:url(#radialGradient22);fill-opacity:1;stroke:none;stroke-width:4.50001;stroke-opacity:1"
           d="m 93.238743,-117.7379 c 0.108139,1.13847 0.394356,4.07215 0.667733,6.1852 0.533579,4.12462 1.506553,7.44317 2.625851,10.24649 a 31,31 0 0 0 4.496193,-0.86229 c -1.148211,-2.67488 -2.122391,-5.79972 -2.660711,-9.96098 -0.21549,-1.66567 -0.450538,-3.9882 -0.583992,-5.35886 -1.472419,-0.2499 -2.994286,-0.33893 -4.545074,-0.24956 z"
           transform="rotate(94.752687)" /><path
           id="circle23"
           style="fill:url(#radialGradient23);fill-opacity:1;stroke:none;stroke-width:4.50001;stroke-opacity:1"
           d="m 184.31172,-164.22831 a 4.7406535,4.911077 85.247313 0 0 5.28668,4.3171 4.7406535,4.911077 85.247313 0 0 4.50169,-5.13091 4.7406535,4.911077 85.247313 0 0 -0.005,-0.0587 31,31 0 0 0 -5.29523,-4.25779 4.7406535,4.911077 85.247313 0 0 -4.48774,5.13027 z"
           transform="rotate(94.752687)" /><path
           id="circle24"
           style="fill:url(#radialGradient24);fill-opacity:1;stroke:none;stroke-width:4.50001;stroke-opacity:1"
           d="m 182.70514,-46.97461 a 4.7406535,4.911077 85.247313 0 0 5.28724,4.317567 4.7406535,4.911077 85.247313 0 0 4.50113,-5.13138 4.7406535,4.911077 85.247313 0 0 -5.28673,-4.31761 4.7406535,4.911077 85.247313 0 0 -4.50164,5.131423 z"
           transform="rotate(94.752687)" /></g></g></g></svg>
