<?xml version="1.0" encoding="UTF-8" standalone="no"?>
<svg
   width="596.74292"
   height="288.17999"
   viewBox="0 0 596.74292 288.17999"
   fill="none"
   version="1.1"
   id="svg39"
   sodipodi:docname="sbc-logo.svg"
   xmlns:inkscape="http://www.inkscape.org/namespaces/inkscape"
   xmlns:sodipodi="http://sodipodi.sourceforge.net/DTD/sodipodi-0.dtd"
   xmlns="http://www.w3.org/2000/svg"
   xmlns:svg="http://www.w3.org/2000/svg">
  <defs
     id="defs39" />
  <sodipodi:namedview
     id="namedview39"
     pagecolor="#ffffff"
     bordercolor="#000000"
     borderopacity="0.25"
     inkscape:showpageshadow="2"
     inkscape:pageopacity="0.0"
     inkscape:pagecheckerboard="0"
     inkscape:deskcolor="#d1d1d1"
     showgrid="false"
     showguides="true">
    <sodipodi:guide
       position="232.32375,-6.8785337e-06"
       orientation="1,0"
       id="guide39"
       inkscape:locked="false" />
    <sodipodi:guide
       position="241.96874,10.998783"
       orientation="0,-1"
       id="guide40"
       inkscape:locked="false" />
    <sodipodi:guide
       position="274.48984,21.429993"
       orientation="0,-1"
       id="guide41"
       inkscape:locked="false" />
    <inkscape:page
       x="0"
       y="0"
       width="596.74292"
       height="288.17999"
       id="page2"
       margin="0"
       bleed="0" />
  </sodipodi:namedview>
  <path
     d="m 212.024,120.8 c -1.54,-3.36 -3.5,-6.7 -5.96,-9.99 -6.92,-9.3 -17.74,-18.19 -34.06,-25.76 -64.89,-27.46 -112.7095,1.39 -131.4895,15.42 -3.51,2.62 -6.01,4.73 -7.41,5.85 2.36,-1.73 5.13,-3.36 8.25,-4.87 33.43,-16.22 106.6295,-18.61 141.5095,22.74 4.44,5.26 8.25,11.23 11.29,17.96 1.03,2.3 1.98,4.69 2.82,7.16 2.26,6.6 3.82,13.86 4.58,21.81 0.41,4.25 0.59,8.69 0.51,13.34 -0.31,3.21 25.07,-30.73 9.96,-63.66 z"
     fill="#d0d2d3"
     id="path1"
     inkscape:export-filename="sbc-logo.svg"
     inkscape:export-xdpi="96"
     inkscape:export-ydpi="96" />
  <path
     d="m 250.16178,209.02868 c -0.97989,-0.45995 -2.09977,-0.87991 -3.33963,-1.29986 -1.23986,-0.41995 -2.61971,-0.63993 -4.13955,-0.67993 -1.29985,0 -2.35974,0.29997 -3.17965,0.89991 -0.8799,0.59993 -1.33985,1.55982 -1.33985,2.89968 0,0.65993 0.21998,1.25986 0.65993,1.7998 0.39995,0.55994 0.9199,1.09988 1.57982,1.61982 1.41985,0.9599 3.05967,1.91979 4.89947,2.89969 1.8398,0.97989 3.47962,2.19975 4.87946,3.6196 1.43984,1.45984 2.17976,3.33963 2.21976,5.63938 -0.04,2.85969 -1.05989,5.03945 -3.03967,6.51929 -1.97978,1.49983 -4.63949,2.23975 -7.97912,2.23975 -1.93979,-0.04 -3.6596,-0.23997 -5.17944,-0.59993 -1.53983,-0.35996 -2.55973,-0.59994 -3.07968,-0.71993 v -5.4194 c 0.9399,0.59993 2.09979,1.21986 3.51964,1.87979 1.45984,0.71992 3.09966,1.09988 4.95945,1.13988 1.95979,-0.02 3.33964,-0.49995 4.15955,-1.43984 0.71992,-0.85991 1.07988,-1.8198 1.07988,-2.85969 -0.02,-1.67982 -0.75992,-3.03967 -2.19976,-4.09955 -1.41985,-1.07988 -3.03967,-2.11977 -4.89946,-3.09966 -1.8598,-0.97989 -3.49962,-2.13977 -4.91946,-3.47962 -1.45986,-1.31986 -2.21976,-3.05966 -2.23976,-5.19943 0.02,-2.7597 1.03987,-4.79947 3.01967,-6.07933 1.93979,-1.25987 4.33952,-1.8798 7.23921,-1.8798 1.69981,0 3.21964,0.1 4.5395,0.31997 1.29986,0.19998 2.21976,0.37996 2.77969,0.51994 z"
     fill="#808184"
     id="path2"
     style="stroke-width:1.99978" />
  <path
     d="m 265.16014,235.18581 c -6.03934,-0.13998 -9.079,-3.83958 -9.099,-11.13878 0.02,-7.2992 3.05966,-11.01879 9.099,-11.13878 6.03934,0.11999 9.079,3.81958 9.099,11.13878 -0.04,7.2992 -3.05966,10.9988 -9.099,11.13878 z m -3.99956,-11.11878 c 0,0.97989 0.06,1.91979 0.15998,2.81969 0.08,0.8799 0.25997,1.69981 0.51994,2.43973 0.29997,0.71992 0.71992,1.27986 1.27986,1.69982 0.51995,0.43995 1.19987,0.67992 2.03978,0.67992 0.85991,0 1.57983,-0.21997 2.11977,-0.67992 0.51994,-0.41996 0.9199,-0.9799 1.17987,-1.69982 0.27997,-0.73992 0.47995,-1.55983 0.59993,-2.43973 0.06,-0.8999 0.08,-1.8398 0.08,-2.81969 0.02,-2.09977 -0.19997,-3.87958 -0.67992,-5.35941 -0.25997,-0.69993 -0.65993,-1.27986 -1.17987,-1.69982 -0.55994,-0.39995 -1.25986,-0.57993 -2.11977,-0.57993 -0.83991,0 -1.51983,0.19997 -2.03978,0.57993 -0.55994,0.41996 -0.97989,0.9799 -1.27986,1.69982 -0.47994,1.47983 -0.71992,3.25964 -0.67992,5.35941 z"
     fill="#808184"
     id="path3"
     style="stroke-width:1.99978" />
  <path
     d="m 295.39682,234.18592 c -1.8198,0.61993 -3.83957,0.95989 -6.03933,0.99989 -3.13966,0 -5.75937,-0.95989 -7.85914,-2.87968 -2.09977,-1.8798 -3.15965,-4.93946 -3.19965,-9.199 -0.04,-2.85968 0.71992,-5.25942 2.23975,-7.19921 1.51984,-1.93978 3.91957,-2.93967 7.19921,-2.99967 1.55983,0 2.87969,0.19998 3.91957,0.61993 0.9799,0.41996 1.75981,0.99989 2.35975,1.75981 0.31996,0.35996 0.57993,0.73992 0.77991,1.11988 0.19998,0.45995 0.35996,0.9199 0.47995,1.39985 0.19998,0.93989 0.29997,1.91978 0.29997,2.89968 h -5.09945 c 0,-1.07988 -0.17998,-2.05978 -0.53994,-2.93968 -0.43995,-0.8799 -1.29985,-1.31986 -2.55972,-1.35985 -1.29985,0.02 -2.27975,0.57993 -2.93967,1.65982 -0.67993,1.09988 -1.01989,2.49972 -1.01989,4.15954 0,1.05988 0.15998,2.13977 0.47995,3.23965 0.31996,1.09987 0.79991,2.13976 1.43984,3.07966 0.69992,0.8999 1.55983,1.63982 2.61971,2.19976 1.07988,0.61993 2.37974,0.93989 3.95957,0.93989 1.35985,0 2.51972,-0.17998 3.47961,-0.53994 z"
     fill="#808184"
     id="path4"
     style="stroke-width:1.99978" />
  <path
     d="m 299.73635,203.84925 h 4.79947 v 4.87946 h -4.79947 z m 0,9.55895 h 4.79947 v 21.27766 h -4.79947 z"
     fill="#808184"
     id="path5"
     style="stroke-width:1.99978" />
  <path
     d="m 325.97327,234.3259 c -1.67981,0.55994 -3.5996,0.85991 -5.77936,0.85991 -6.85925,-0.1 -10.33867,-4.19954 -10.37867,-12.25866 -0.02,-3.01967 0.65993,-5.4594 2.07978,-7.2592 1.41984,-1.7998 3.67959,-2.6997 6.77925,-2.7397 5.21943,0.13998 7.81915,3.01967 7.81915,8.59906 v 1.19987 h -12.21866 c 0,0.73991 0.13978,1.61982 0.41975,2.59971 0.15998,0.47995 0.34016,0.97989 0.54014,1.47984 0.21998,0.45995 0.47995,0.95989 0.77991,1.45984 0.59994,0.95989 1.39985,1.75981 2.37974,2.37974 1.01989,0.67992 2.23976,1.03988 3.6596,1.03988 1.63982,-0.06 2.95968,-0.31996 3.93957,-0.81991 v 3.45962 z m -4.01936,-14.5784 c 0.02,-0.73992 -0.17998,-1.53983 -0.63993,-2.39973 -0.27997,-0.37996 -0.63993,-0.69993 -1.09988,-0.9399 -0.47994,-0.23998 -1.11987,-0.35996 -1.91979,-0.35996 -1.39984,0.04 -2.39973,0.47995 -3.03966,1.35985 -0.59994,0.83991 -0.9199,1.61982 -0.97989,2.31974 h 7.67915 z"
     fill="#808184"
     id="path6"
     style="stroke-width:1.99978" />
  <path
     d="m 342.81163,231.76618 h -0.1 c -0.21998,0.65993 -0.79991,1.35986 -1.73981,2.11977 -0.9399,0.79991 -2.07977,1.21987 -3.39963,1.29986 -2.6997,-0.08 -4.5595,-1.19987 -5.57939,-3.35963 -1.01989,-2.15977 -1.49983,-4.73948 -1.47983,-7.77915 0,-3.19965 0.57993,-5.83936 1.7398,-7.91913 1.09988,-2.11977 2.87969,-3.17965 5.33942,-3.21965 0.77991,0 1.45984,0.08 2.07977,0.25997 0.57994,0.23998 1.05988,0.51995 1.43984,0.85991 0.79992,0.67992 1.33986,1.31985 1.63982,1.91979 h 0.1 v -12.11867 h 4.79948 v 30.83662 h -4.79948 v -2.89969 z m -7.19921,-7.69915 c 0,0.79991 0.06,1.63982 0.15998,2.49972 0.08,0.87991 0.23997,1.67982 0.45995,2.37974 0.25997,0.71992 0.61993,1.27986 1.07988,1.69982 0.49994,0.45995 1.09988,0.69992 1.8198,0.69992 0.69992,0 1.27986,-0.23997 1.73981,-0.69992 0.45995,-0.41996 0.83991,-0.99989 1.13987,-1.69982 0.51995,-1.47983 0.77992,-3.09966 0.77992,-4.87946 0,-2.03978 -0.25997,-3.75959 -0.77992,-5.15944 -0.55993,-1.39984 -1.51983,-2.11976 -2.87968,-2.13976 -0.77991,0 -1.37985,0.19998 -1.8198,0.61993 -0.45995,0.41996 -0.81991,0.97989 -1.07988,1.65982 -0.21998,0.67992 -0.37996,1.45984 -0.45995,2.33974 -0.1,0.83991 -0.15998,1.73981 -0.15998,2.67971 z"
     fill="#808184"
     id="path7"
     style="stroke-width:1.99978" />
  <path
     d="m 364.60924,232.22613 h -0.08 c -0.29997,0.67993 -0.83991,1.33986 -1.65982,1.95979 -0.43995,0.27997 -0.9599,0.49994 -1.55983,0.67992 -0.59994,0.17999 -1.31986,0.27997 -2.15976,0.31997 -1.75981,-0.04 -3.21965,-0.55994 -4.33953,-1.51983 -1.15987,-1.01989 -1.73981,-2.35974 -1.73981,-4.05956 0.02,-1.75981 0.49995,-3.13965 1.43984,-4.15954 0.89991,-0.97989 1.97979,-1.67982 3.27964,-2.09977 1.31986,-0.41996 2.59972,-0.69993 3.83958,-0.79991 1.27986,-0.11999 2.25976,-0.15999 2.97968,-0.11999 v -2.09977 c 0,-1.09988 -0.17998,-2.01978 -0.51995,-2.7797 -0.39995,-0.71992 -1.17987,-1.09988 -2.35974,-1.13987 -1.27986,0.02 -2.11976,0.39995 -2.55972,1.09988 -0.43995,0.67992 -0.63993,1.41984 -0.61993,2.17976 h -4.65949 c 0,-4.39952 2.61971,-6.65927 7.83914,-6.77926 5.01945,0.04 7.49918,2.23976 7.47918,6.61928 v 15.13834 h -4.5795 v -2.43974 z m -6.87925,-3.07966 c 0,1.69982 0.85991,2.55972 2.55972,2.55972 0.77992,0 1.45984,-0.21997 2.03978,-0.63993 0.51994,-0.37996 0.95989,-0.8799 1.31985,-1.51983 0.33997,-0.65993 0.59994,-1.33985 0.77992,-2.05978 0.11998,-0.73991 0.17998,-1.47983 0.17998,-2.17976 -1.65982,0 -3.17965,0.25997 -4.5595,0.79992 -0.65993,0.29996 -1.19987,0.69992 -1.61983,1.19986 -0.47994,0.49995 -0.69992,1.11988 -0.69992,1.8398 z"
     fill="#808184"
     id="path8"
     style="stroke-width:1.99978" />
  <path
     d="m 386.66682,231.76618 h -0.1 c -0.21998,0.65993 -0.79991,1.35986 -1.73981,2.11977 -0.9399,0.79991 -2.07977,1.21987 -3.39963,1.29986 -2.6997,-0.08 -4.5595,-1.19987 -5.57939,-3.35963 -1.01988,-2.15977 -1.51983,-4.73948 -1.47983,-7.77915 0,-3.19965 0.57993,-5.83936 1.73981,-7.91913 1.09988,-2.11977 2.87968,-3.17965 5.31941,-3.21965 0.77992,0 1.45984,0.08 2.07978,0.25997 0.57993,0.23998 1.05988,0.51995 1.43984,0.85991 0.79991,0.67992 1.33985,1.31985 1.61982,1.91979 h 0.1 v -12.11867 h 4.79947 v 30.83662 h -4.79947 z m -7.19921,-7.69915 c 0,0.79991 0.06,1.63982 0.15998,2.49972 0.08,0.87991 0.23997,1.67982 0.45995,2.37974 0.25997,0.71992 0.61993,1.27986 1.07988,1.69982 0.49995,0.45995 1.09988,0.69992 1.8198,0.69992 0.69993,0 1.27986,-0.23997 1.73981,-0.69992 0.45995,-0.41996 0.83991,-0.99989 1.13988,-1.69982 0.51994,-1.47983 0.77991,-3.09966 0.77991,-4.87946 0,-2.03978 -0.25997,-3.75959 -0.77991,-5.15944 -0.55994,-1.39984 -1.51984,-2.11976 -2.87969,-2.13976 -0.77991,0 -1.37985,0.19998 -1.8198,0.61993 -0.45995,0.41996 -0.81991,0.97989 -1.07988,1.65982 -0.21998,0.67992 -0.37996,1.45984 -0.45995,2.33974 -0.1,0.83991 -0.15998,1.73981 -0.15998,2.67971 z"
     fill="#808184"
     id="path9"
     style="stroke-width:1.99978" />
  <path
     d="m 412.88394,234.3259 c -1.67981,0.55994 -3.5996,0.85991 -5.77936,0.85991 -6.87925,-0.1 -10.33887,-4.19954 -10.39886,-12.25866 -0.02,-3.01967 0.65993,-5.4594 2.07977,-7.2592 1.41984,-1.7998 3.6796,-2.6997 6.77926,-2.7397 5.21942,0.13998 7.81914,3.01967 7.81914,8.59906 v 1.19987 h -12.21866 c 0,0.73991 0.13998,1.61982 0.41995,2.59971 0.15999,0.47995 0.33997,0.97989 0.53994,1.47984 0.21998,0.45995 0.47995,0.95989 0.77992,1.45984 0.59993,0.95989 1.39985,1.75981 2.37974,2.37974 1.01989,0.67992 2.23975,1.03988 3.6596,1.03988 1.63982,-0.06 2.95967,-0.31996 3.93956,-0.81991 z m -4.03955,-14.5784 c 0.02,-0.73992 -0.17998,-1.53983 -0.63993,-2.39973 -0.27997,-0.37996 -0.63993,-0.69993 -1.09988,-0.9399 -0.47995,-0.23998 -1.11988,-0.35996 -1.91979,-0.35996 -1.39985,0.04 -2.39974,0.47995 -3.03967,1.35985 -0.59993,0.83991 -0.9199,1.61982 -0.97989,2.31974 h 7.67916 z"
     fill="#808184"
     id="path10"
     style="stroke-width:1.99978" />
  <path
     d="m 432.04084,203.84925 h 9.179 c 0.83991,0 1.73981,0.08 2.7197,0.21997 0.97989,0.13999 1.89979,0.47995 2.7597,1.01989 0.8599,0.47995 1.57982,1.21987 2.15976,2.19976 0.53994,0.97989 0.81991,2.23975 0.81991,3.79958 0,1.21987 -0.15998,2.23976 -0.47995,3.07966 -0.33996,0.83991 -0.77991,1.51984 -1.31985,2.05978 -1.11988,1.01989 -2.17976,1.67981 -3.15966,1.95978 v 0.08 c 0.67993,0.08 1.39985,0.23998 2.15977,0.49995 0.75991,0.27997 1.43984,0.73992 2.07977,1.33985 0.65993,0.55994 1.21987,1.33986 1.65982,2.33975 0.41995,0.93989 0.61993,2.17976 0.61993,3.71959 -0.02,1.87979 -0.33996,3.37963 -0.8999,4.47951 -0.59994,1.15987 -1.41985,2.01978 -2.43973,2.57971 -0.9799,0.55994 -2.05978,0.9599 -3.21965,1.17988 -1.17987,0.19997 -2.31975,0.29996 -3.41963,0.29996 h -9.21899 z m 5.05945,12.65861 h 2.01978 c 0.79991,0 1.53983,-0.06 2.21975,-0.19998 0.65993,-0.11999 1.21987,-0.31997 1.69982,-0.61993 0.47995,-0.29997 0.8599,-0.75992 1.11988,-1.39985 0.25997,-0.55994 0.37995,-1.33985 0.37995,-2.31974 0,-0.9799 -0.11998,-1.77981 -0.33996,-2.37974 -0.25997,-0.55994 -0.63993,-0.99989 -1.11988,-1.27986 -0.45995,-0.33997 -1.01988,-0.55994 -1.69981,-0.67993 -0.35996,-0.06 -0.69992,-0.08 -1.03989,-0.08 -0.37995,0 -0.79991,0 -1.21986,0 h -2.01978 z m 0,14.45841 h 2.03978 c 0.8599,0 1.69981,-0.08 2.53972,-0.21997 0.79991,-0.11999 1.55983,-0.35996 2.23975,-0.71992 0.65993,-0.37996 1.19987,-0.9399 1.59983,-1.65982 0.37996,-0.67993 0.57993,-1.57983 0.57993,-2.67971 -0.02,-2.01978 -0.63993,-3.43962 -1.8398,-4.27953 -1.23986,-0.81991 -2.93967,-1.21987 -5.09944,-1.21987 h -2.03977 v 10.77882 z"
     fill="#808184"
     id="path11"
     style="stroke-width:1.99978" />
  <path
     d="m 456.67814,213.4082 h 4.79948 v 3.93957 h 0.1 c 0.27997,-0.51995 0.61993,-1.05989 0.99989,-1.59983 0.33996,-0.49994 0.73992,-0.97989 1.19987,-1.39985 0.95989,-0.91989 2.43973,-1.37984 4.45951,-1.41984 v 5.19943 c -4.6195,-0.06 -6.85925,2.35974 -6.75926,7.23921 v 9.33897 h -4.79948 z"
     fill="#808184"
     id="path12"
     style="stroke-width:1.99978" />
  <path
     d="m 482.97526,232.22613 h -0.08 c -0.29997,0.67993 -0.83991,1.33986 -1.65982,1.95979 -0.43995,0.27997 -0.95989,0.49994 -1.55983,0.67992 -0.59993,0.17999 -1.31985,0.27997 -2.15976,0.31997 -1.75981,-0.04 -3.21965,-0.55994 -4.33953,-1.51983 -1.15987,-1.01989 -1.7398,-2.35974 -1.7398,-4.05956 0.02,-1.75981 0.49994,-3.13965 1.43984,-4.15954 0.8999,-0.97989 1.97978,-1.67982 3.27964,-2.09977 1.31985,-0.41996 2.59971,-0.69993 3.83958,-0.79991 1.27986,-0.11999 2.25975,-0.15999 2.97967,-0.11999 v -2.09977 c 0,-1.09988 -0.17998,-2.01978 -0.51994,-2.7797 -0.39996,-0.71992 -1.17987,-1.09988 -2.37974,-1.13987 -1.25986,0.02 -2.11977,0.39995 -2.55972,1.09988 -0.43995,0.67992 -0.63993,1.41984 -0.61993,2.17976 h -4.65949 c 0,-4.39952 2.61971,-6.65927 7.83914,-6.77926 5.01945,0.04 7.49918,2.23976 7.47918,6.61928 v 15.13834 h -4.5795 z m -6.87925,-3.07966 c 0,1.69982 0.85991,2.55972 2.55972,2.55972 0.77992,0 1.45984,-0.21997 2.03978,-0.63993 0.51994,-0.37996 0.95989,-0.8799 1.31986,-1.51983 0.33996,-0.65993 0.59993,-1.33985 0.77991,-2.05978 0.11999,-0.73991 0.15998,-1.47983 0.15998,-2.17976 -1.65982,0 -3.17965,0.25997 -4.5595,0.79992 -0.65993,0.29996 -1.19987,0.69992 -1.61982,1.19986 -0.43995,0.49995 -0.67993,1.11988 -0.67993,1.8398 z"
     fill="#808184"
     id="path13"
     style="stroke-width:1.99978" />
  <path
     d="m 504.65488,217.9277 c -0.27997,-0.17998 -0.8419,-0.45995 -1.66181,-0.8599 -0.83991,-0.33997 -1.8198,-0.53994 -2.93968,-0.55994 -0.77992,0 -1.47984,0.15998 -2.11977,0.47994 -0.73992,0.35997 -1.09988,0.85991 -1.09988,1.47984 0,0.29997 0.15998,0.59994 0.43995,0.9399 0.25997,0.33996 0.60194,0.67993 1.04189,0.97989 0.8799,0.59994 1.89979,1.25986 3.05966,2.01978 1.17987,0.71992 2.23976,1.57983 3.13966,2.59972 0.8799,0.99989 1.33785,2.25975 1.37785,3.79958 -0.02,2.15976 -0.73792,3.75959 -2.15777,4.77948 -1.41984,1.07988 -3.28164,1.61982 -5.62138,1.61982 -1.37985,-0.04 -2.51772,-0.15998 -3.37763,-0.31997 -0.8799,-0.19998 -1.57983,-0.37996 -2.07977,-0.51994 v -4.27953 c 0.33996,0.11999 0.71992,0.23997 1.15987,0.39996 0.39996,0.19997 0.81791,0.33996 1.23787,0.45994 0.9199,0.27997 1.87979,0.43996 2.83968,0.43996 0.69993,0 1.44185,-0.11999 2.24176,-0.35996 0.83991,-0.23998 1.27786,-0.75992 1.31785,-1.57983 -0.04,-0.61993 -0.49794,-1.25986 -1.35785,-1.91979 -0.8599,-0.61993 -1.87979,-1.29986 -3.05966,-2.05977 -0.51994,-0.39996 -1.06188,-0.79992 -1.60183,-1.23987 -0.51994,-0.45995 -0.99989,-0.9399 -1.43984,-1.43984 -0.9199,-0.99989 -1.37785,-2.19976 -1.41784,-3.57961 0,-2.01978 0.67792,-3.57961 2.03777,-4.65949 1.31986,-1.05988 3.11966,-1.59982 5.37941,-1.59982 1.03989,0.04 1.95979,0.11998 2.7797,0.25997 0.77991,0.19998 1.41984,0.37996 1.89979,0.53994 v 4.17954 z"
     fill="#808184"
     id="path14"
     style="stroke-width:1.99978" />
  <path
     d="m 510.77221,203.84925 h 4.79948 v 4.87946 h -4.79948 z m 0,9.55895 h 4.79948 v 21.27766 h -4.79948 z"
     fill="#808184"
     id="path15"
     style="stroke-width:1.99978" />
  <path
     d="m 522.33295,203.84925 h 4.79947 v 30.83661 h -4.79947 z"
     fill="#808184"
     id="path16"
     style="stroke-width:1.99978" />
  <path
     d="m 548.59007,234.3259 c -1.67982,0.55994 -3.59961,0.85991 -5.77937,0.85991 -6.87925,-0.1 -10.33887,-4.19954 -10.39886,-12.25866 -0.02,-3.01967 0.65993,-5.4594 2.07977,-7.2592 1.41985,-1.7998 3.6796,-2.6997 6.77926,-2.7397 5.21943,0.13998 7.81914,3.01967 7.81914,8.59906 v 1.19987 h -12.21866 c 0,0.73991 0.13999,1.61982 0.41996,2.59971 0.15998,0.47995 0.33996,0.97989 0.53994,1.47984 0.21997,0.45995 0.47994,0.95989 0.77991,1.45984 0.59994,0.95989 1.39985,1.75981 2.37974,2.37974 1.01989,0.67992 2.23975,1.03988 3.6596,1.03988 1.63982,-0.06 2.95967,-0.31996 3.93957,-0.81991 z m -4.01956,-14.5784 c 0.04,-0.73992 -0.17998,-1.53983 -0.63993,-2.39973 -0.27997,-0.37996 -0.63993,-0.69993 -1.09988,-0.9399 -0.47995,-0.23998 -1.11988,-0.35996 -1.91979,-0.35996 -1.39985,0.04 -2.39974,0.47995 -3.03967,1.35985 -0.59993,0.83991 -0.9199,1.61982 -0.97989,2.31974 h 7.67916 z"
     fill="#808184"
     id="path17"
     style="stroke-width:1.99978" />
  <path
     d="m 554.60941,203.84925 h 4.79947 v 4.87946 h -4.79947 z m 0,9.55895 h 4.79947 v 21.27766 h -4.79947 z"
     fill="#808184"
     id="path18"
     style="stroke-width:1.99978" />
  <path
     d="m 565.86817,213.4082 h 4.79948 v 3.93957 h 0.1 c 0.27996,-0.51995 0.61993,-1.05989 0.99989,-1.59983 0.33996,-0.49994 0.73991,-0.97989 1.19986,-1.39985 0.9599,-0.91989 2.43974,-1.37984 4.45952,-1.41984 v 5.19943 c -4.6195,-0.06 -6.85925,2.35974 -6.75926,7.23921 v 9.33897 h -4.79948 z"
     fill="#808184"
     id="path19"
     style="stroke-width:1.99978" />
  <path
     d="m 592.16329,232.22613 h -0.08 c -0.29997,0.67993 -0.83991,1.33986 -1.65982,1.95979 -0.43995,0.27997 -0.95989,0.49994 -1.55983,0.67992 -0.59993,0.17999 -1.31985,0.27997 -2.15976,0.31997 -1.75981,-0.04 -3.21965,-0.55994 -4.33953,-1.51983 -1.15987,-1.01989 -1.73981,-2.35974 -1.73981,-4.05956 0.02,-1.75981 0.49995,-3.13965 1.43985,-4.15954 0.8999,-0.97989 1.97978,-1.67982 3.27964,-2.09977 1.31985,-0.41996 2.59971,-0.69993 3.83958,-0.79991 1.27986,-0.11999 2.25975,-0.15999 2.97967,-0.11999 v -2.09977 c 0,-1.09988 -0.17998,-2.01978 -0.51994,-2.7797 -0.39996,-0.71992 -1.17987,-1.09988 -2.37974,-1.13987 -1.27986,0.02 -2.11977,0.39995 -2.55972,1.09988 -0.43995,0.67992 -0.63993,1.41984 -0.61993,2.17976 h -4.65949 c 0,-4.39952 2.61971,-6.65927 7.83914,-6.77926 5.01945,0.04 7.49918,2.23976 7.47918,6.61928 v 15.13834 h -4.5795 z m -6.87925,-3.07966 c 0,1.69982 0.85991,2.55972 2.55972,2.55972 0.77992,0 1.45984,-0.21997 2.03978,-0.63993 0.51994,-0.37996 0.95989,-0.8799 1.31985,-1.51983 0.33997,-0.65993 0.59994,-1.33985 0.77992,-2.05978 0.11999,-0.73991 0.17998,-1.47983 0.17998,-2.17976 -1.65982,0 -3.17965,0.25997 -4.5595,0.79992 -0.65993,0.29996 -1.19987,0.69992 -1.61982,1.19986 -0.45995,0.49995 -0.69993,1.11988 -0.69993,1.8398 z"
     fill="#808184"
     id="path20"
     style="stroke-width:1.99978" />
  <path
     d="m 244.62301,273.76158 h -0.1 c -0.21997,0.65993 -0.79991,1.35985 -1.73981,2.11977 -0.93989,0.79991 -2.07977,1.23986 -3.39962,1.29986 -2.69971,-0.08 -4.5595,-1.19987 -5.57939,-3.35964 -1.01989,-2.15976 -1.49984,-4.73948 -1.47984,-7.75915 0,-3.19964 0.57994,-5.83936 1.73981,-7.91913 1.09988,-2.09977 2.87968,-3.17965 5.31942,-3.19965 0.77991,0 1.45984,0.08 2.07977,0.25998 0.57993,0.23997 1.05988,0.51994 1.43984,0.8599 0.79991,0.67993 1.33985,1.31986 1.61982,1.91979 h 0.1 v -12.11867 h 4.79948 v 30.83662 h -4.79948 z m -7.19921,-7.69916 c 0,0.79992 0.06,1.63983 0.15998,2.49973 0.08,0.8799 0.23998,1.65982 0.45995,2.37974 0.25997,0.71992 0.63993,1.27986 1.07988,1.69981 0.49995,0.45995 1.09988,0.69993 1.8198,0.69993 0.69993,0 1.27986,-0.23998 1.73981,-0.69993 0.45995,-0.41995 0.83991,-0.97989 1.13988,-1.69981 0.51994,-1.47984 0.77991,-3.09966 0.77991,-4.87947 0,-2.03977 -0.25997,-3.75958 -0.77991,-5.15943 -0.55994,-1.39985 -1.51983,-2.11977 -2.87969,-2.13976 -0.77991,0 -1.37984,0.19997 -1.8198,0.61993 -0.45995,0.41995 -0.81991,0.97989 -1.07988,1.65982 -0.21997,0.67992 -0.37996,1.45984 -0.45995,2.33974 -0.1,0.8599 -0.15998,1.75981 -0.15998,2.6797 z"
     fill="#808184"
     id="path21"
     style="stroke-width:1.99978" />
  <path
     d="m 270.84014,276.3413 c -1.67982,0.55994 -3.59961,0.8599 -5.77937,0.8599 -6.87925,-0.1 -10.33887,-4.19954 -10.39886,-12.27865 -0.02,-3.01967 0.65993,-5.4394 2.07977,-7.2792 1.41985,-1.77981 3.6796,-2.69971 6.77926,-2.7197 5.21943,0.13998 7.81914,3.01966 7.81914,8.59905 v 1.19987 h -12.21866 c 0,0.73992 0.13999,1.61982 0.41996,2.59972 0.15998,0.47994 0.33996,0.97989 0.53994,1.47983 0.21997,0.45995 0.47994,0.9599 0.77991,1.45984 0.59994,0.9599 1.39985,1.75981 2.37974,2.37974 1.01989,0.67993 2.23975,1.01989 3.6596,1.01989 1.63982,-0.06 2.95967,-0.31996 3.93957,-0.79991 z m -4.03956,-14.5784 c 0.02,-0.73992 -0.17998,-1.53984 -0.63993,-2.39974 -0.27997,-0.37996 -0.63993,-0.69992 -1.09988,-0.9399 -0.47995,-0.23997 -1.11988,-0.35996 -1.91979,-0.35996 -1.39985,0.02 -2.39974,0.47995 -3.03967,1.35985 -0.59993,0.83991 -0.91989,1.59983 -0.97989,2.31975 h 7.67916 z"
     fill="#808184"
     id="path22"
     style="stroke-width:1.99978" />
  <path
     d="m 309.5159,275.4014 c -0.35996,0.13999 -0.77992,0.29997 -1.27986,0.47995 -0.57994,0.23997 -1.21987,0.45995 -1.91979,0.61993 -1.43984,0.39996 -3.07966,0.63993 -4.91946,0.67993 -4.29953,-0.04 -7.45919,-1.51984 -9.47896,-4.43952 -2.05978,-2.89968 -3.07967,-6.77925 -3.07967,-11.63872 -0.02,-4.63949 0.87991,-8.41908 2.7397,-11.29876 1.8198,-2.91968 4.83947,-4.39952 9.05901,-4.47951 3.45962,0.04 6.01934,0.9199 7.63916,2.63971 1.59983,1.73981 2.41974,3.83958 2.41974,6.31931 h -5.61939 c 0,-0.61994 -0.02,-1.25987 -0.08,-1.8798 -0.11998,-0.61993 -0.33996,-1.19987 -0.65993,-1.69981 -0.27996,-0.51994 -0.71992,-0.9199 -1.27985,-1.23987 -0.59994,-0.27996 -1.39985,-0.41995 -2.37974,-0.41995 -1.29986,0.02 -2.33975,0.39996 -3.15966,1.09988 -0.81991,0.67993 -1.43984,1.57983 -1.85979,2.6997 -0.43996,1.13988 -0.73992,2.33975 -0.8999,3.61961 -0.17999,1.31985 -0.27997,2.59971 -0.27997,3.83958 -0.02,3.73959 0.57993,6.77925 1.8198,9.13899 1.21986,2.39974 3.31963,3.59961 6.3193,3.61961 1.73981,-0.02 3.21965,-0.35996 4.45951,-0.9799 1.23987,-0.55993 2.07978,-0.99989 2.51973,-1.29985 v 4.61949 z"
     fill="#808184"
     id="path23"
     style="stroke-width:1.99978" />
  <path
     d="m 322.55447,277.2012 c -6.03934,-0.13998 -9.07901,-3.83958 -9.099,-11.13878 0.02,-7.29919 3.05966,-11.01879 9.099,-11.13877 6.03934,0.11998 9.0792,3.81958 9.0992,11.13877 -0.02,7.27921 -3.05986,10.9988 -9.0992,11.13878 z m -3.99956,-11.13878 c 0,0.9799 0.0602,1.91979 0.16018,2.8197 0.08,0.8799 0.25977,1.69981 0.51974,2.43973 0.29997,0.71992 0.71992,1.27986 1.27986,1.69981 0.51994,0.45995 1.19987,0.67993 2.03978,0.67993 0.8599,0 1.57982,-0.21998 2.11977,-0.67993 0.51994,-0.41995 0.91989,-0.97989 1.17987,-1.69981 0.27997,-0.73992 0.47994,-1.55983 0.59993,-2.43973 0.06,-0.89991 0.0802,-1.8398 0.0802,-2.8197 0.02,-2.09976 -0.20018,-3.87957 -0.68012,-5.35941 -0.25998,-0.71992 -0.65993,-1.27986 -1.17987,-1.69981 -0.55994,-0.37996 -1.25987,-0.57994 -2.11977,-0.57994 -0.83991,0 -1.51984,0.19998 -2.03978,0.57994 -0.55994,0.41995 -0.97989,0.97989 -1.27986,1.69981 -0.47995,1.47984 -0.69992,3.27964 -0.67992,5.35941 z"
     fill="#808184"
     id="path24"
     style="stroke-width:1.99978" />
  <path
     d="m 336.71292,255.40359 h 4.79947 v 3.27964 h 0.08 c 0.17998,-0.35996 0.39996,-0.75991 0.65993,-1.21986 0.27997,-0.39996 0.63993,-0.79991 1.07988,-1.19987 0.43995,-0.41995 0.97989,-0.75992 1.59982,-0.97989 0.61994,-0.23998 1.37985,-0.33997 2.23976,-0.33997 1.33985,0 2.47973,0.31997 3.41962,0.9799 0.9599,0.71992 1.59983,1.7998 1.91979,3.25964 h 0.1 c 0.31997,-0.8799 0.9799,-1.8198 1.95979,-2.7797 0.97989,-0.93989 2.31974,-1.43984 4.01956,-1.45984 1.61982,0 2.97967,0.53994 4.09955,1.63982 1.07988,1.13988 1.61982,2.91968 1.65982,5.35942 v 14.75838 h -4.79948 v -12.17867 c 0,-2.11976 -0.13998,-3.49961 -0.41995,-4.15954 -0.31997,-0.55994 -0.9399,-0.83991 -1.8398,-0.81991 -0.73992,0 -1.37985,0.23997 -1.91979,0.69992 -0.53994,0.49995 -0.97989,1.17987 -1.35985,1.97979 -0.73992,1.65981 -1.09988,3.39962 -1.09988,5.21942 v 9.21899 h -4.79947 V 264.4826 c 0,-2.11977 -0.13999,-3.49962 -0.41996,-4.15955 -0.31996,-0.55993 -0.9399,-0.8399 -1.8398,-0.81991 -0.73992,0 -1.37985,0.23998 -1.91979,0.69993 -0.55993,0.49994 -0.99989,1.17987 -1.35985,1.97978 -0.73992,1.65982 -1.09988,3.39963 -1.09988,5.21943 v 9.21899 h -4.79947 v -21.21768 z"
     fill="#808184"
     id="path25"
     style="stroke-width:1.99978" />
  <path
     d="m 370.86917,255.40359 h 4.80047 v 2.93968 h 0.1 c 0.27997,-0.67992 0.87991,-1.41984 1.8198,-2.17976 0.87991,-0.79991 1.97979,-1.21987 3.27964,-1.23986 2.71971,0.06 4.5995,1.15987 5.61939,3.29963 1.01989,2.15977 1.49783,4.75948 1.47784,7.83914 0,3.15966 -0.55794,5.77937 -1.65782,7.85914 -1.15987,2.11977 -2.98168,3.19965 -5.4614,3.27964 -0.71992,0 -1.35985,-0.11998 -1.93979,-0.37995 -0.55994,-0.17998 -1.03789,-0.41996 -1.47784,-0.75992 -0.79991,-0.67993 -1.36185,-1.31986 -1.68181,-1.89979 h -0.098 v 12.09867 h -4.80048 v -30.85662 z m 4.80047,10.65883 c -0.02,1.99979 0.23998,3.6996 0.77992,5.09945 0.53994,1.41984 1.47984,2.15976 2.81969,2.17976 0.83991,0 1.49784,-0.21998 1.97778,-0.65993 0.45995,-0.41995 0.82191,-0.97989 1.08188,-1.65982 0.25998,-0.71992 0.39796,-1.49983 0.45795,-2.37974 0.06,-0.8599 0.082,-1.71981 0.082,-2.57972 0,-0.8799 -0.022,-1.7398 -0.082,-2.59971 -0.08,-0.8799 -0.25997,-1.65982 -0.49994,-2.33974 -0.27997,-0.71992 -0.61793,-1.29986 -1.07788,-1.75981 -0.49995,-0.39996 -1.14188,-0.61993 -1.92179,-0.61993 -0.63993,0 -1.15788,0.19998 -1.57783,0.61993 -0.45995,0.45995 -0.8599,1.03989 -1.17987,1.75981 -0.59993,1.49983 -0.85991,3.15965 -0.85991,4.93945 z"
     fill="#808184"
     id="path26"
     style="stroke-width:1.99978" />
  <path
     d="m 405.08442,272.74169 h -0.08 c -0.11999,0.37996 -0.33996,0.81991 -0.65993,1.31986 -0.27997,0.49994 -0.65993,0.99989 -1.15987,1.47984 -0.49995,0.43995 -1.07988,0.81991 -1.77981,1.15987 -0.71992,0.33996 -1.55983,0.49994 -2.51972,0.49994 -1.55983,0 -2.83969,-0.55993 -3.89957,-1.69981 -1.09988,-1.15987 -1.65982,-2.93968 -1.69982,-5.31942 v -14.75838 h 4.79948 v 12.17867 c 0,2.09977 0.15998,3.45962 0.45995,4.07955 0.29996,0.61993 0.8399,0.9199 1.65981,0.8999 0.79992,0 1.51984,-0.27997 2.11977,-0.79991 0.59994,-0.51995 1.11988,-1.15988 1.51984,-1.91979 0.79991,-1.63982 1.21986,-3.37963 1.21986,-5.19943 v -9.21899 h 4.79948 v 21.27767 h -4.79948 v -3.97957 z"
     fill="#808184"
     id="path27"
     style="stroke-width:1.99978" />
  <path
     d="m 428.72383,276.82125 c -1.29986,0.23997 -2.61971,0.37995 -3.95957,0.37995 -1.31985,0 -2.39973,-0.15998 -3.23964,-0.49994 -0.83991,-0.29997 -1.49984,-0.69992 -1.93979,-1.23987 -0.39996,-0.55993 -0.69992,-1.19986 -0.85991,-1.91979 -0.17998,-0.67992 -0.27997,-1.41984 -0.27997,-2.19975 v -12.45864 h -4.01955 v -3.43962 h 4.01955 v -5.03945 l 4.79948,-2.99967 v 8.03912 h 6.09933 v 3.43962 h -6.09933 v 10.0589 c -0.02,1.29986 0.15998,2.39974 0.55994,3.29964 0.21997,0.43995 0.53994,0.79991 0.95989,1.01989 0.43995,0.29996 1.01989,0.45995 1.73981,0.45995 0.79991,0 1.53983,-0.11999 2.21976,-0.37996 z"
     fill="#808184"
     id="path28"
     style="stroke-width:1.99978" />
  <path
     d="m 443.5802,274.22153 h -0.08 c -0.29997,0.67993 -0.83991,1.33985 -1.65982,1.95979 -0.43995,0.27996 -0.95989,0.49994 -1.55983,0.67992 -0.59993,0.17998 -1.31985,0.27997 -2.15976,0.33996 -1.75981,-0.04 -3.21965,-0.55993 -4.33953,-1.51983 -1.15987,-1.01989 -1.73981,-2.35974 -1.73981,-4.05955 0.02,-1.75981 0.49995,-3.13966 1.43985,-4.15955 0.8999,-0.97989 1.97978,-1.65982 3.27964,-2.09977 1.31985,-0.41995 2.59971,-0.67992 3.83958,-0.79991 1.27986,-0.11999 2.25975,-0.15998 2.99967,-0.13999 v -2.09977 c 0,-1.09987 -0.17998,-2.03977 -0.51995,-2.77969 -0.39995,-0.71992 -1.17987,-1.09988 -2.37974,-1.13988 -1.25986,0.02 -2.11976,0.39996 -2.55971,1.09988 -0.43996,0.67993 -0.63993,1.41985 -0.61994,2.17976 h -4.65949 c 0,-4.39951 2.61972,-6.65926 7.83914,-6.75925 5.01945,0.02 7.49918,2.23975 7.47919,6.61927 v 15.15834 h -4.5795 v -2.47973 z m -6.87925,-3.07966 c 0,1.69981 0.85991,2.55972 2.55972,2.55972 0.77992,0 1.45984,-0.21998 2.03978,-0.63993 0.51994,-0.37996 0.95989,-0.87991 1.31985,-1.53983 0.33997,-0.65993 0.59994,-1.33986 0.77992,-2.05978 0.11999,-0.73992 0.15998,-1.47984 0.15998,-2.17976 -1.65982,0 -3.17965,0.27997 -4.5595,0.79991 -0.65993,0.29997 -1.19987,0.69993 -1.61982,1.19987 -0.45995,0.53994 -0.67993,1.13988 -0.67993,1.8598 z"
     fill="#808184"
     id="path29"
     style="stroke-width:1.99978" />
  <path
     d="m 459.76043,276.52128 c -4.41952,-1.25986 -6.69927,-5.03945 -6.79926,-11.39875 -0.02,-2.85969 0.73992,-5.25943 2.29975,-7.19921 1.53983,-1.93979 3.99956,-2.93968 7.35919,-2.99967 1.59983,0 2.93968,0.19997 3.99956,0.61993 0.99989,0.41995 1.79981,0.99989 2.41974,1.75981 0.33996,0.35996 0.59993,0.73991 0.79991,1.11987 0.19998,0.45995 0.35996,0.9199 0.49995,1.39985 0.19997,0.9399 0.29996,1.91979 0.29996,2.89968 h -5.09944 c 0,-1.07988 -0.19998,-2.05977 -0.57993,-2.93968 -0.45995,-0.8799 -1.35986,-1.31985 -2.69971,-1.35985 -1.35985,0.02 -2.39974,0.57994 -3.09966,1.65982 -0.71992,1.09988 -1.07988,2.49973 -1.07988,4.15954 0,1.05989 0.15998,2.13977 0.49994,3.23965 0.33997,1.09988 0.81991,2.13976 1.47984,3.07966 0.69993,0.8999 1.59983,1.63982 2.67971,2.19976 1.09988,0.61993 2.43973,0.9399 4.03956,0.9399 1.37984,0 2.55972,-0.17998 3.53961,-0.53994 v 3.03966 c -1.8398,0.61994 -3.85958,0.9599 -6.07934,0.99989 -0.69992,0 -1.35985,-0.06 -1.99978,-0.15998 l -0.57993,2.55972 c 0.17998,-0.02 0.37996,-0.04 0.61993,-0.04 0.41995,0 0.8599,0.04 1.35985,0.13999 0.49995,0.11999 0.97989,0.33996 1.41984,0.67993 0.47995,0.29996 0.83991,0.69992 1.09988,1.23986 0.27997,0.53994 0.39996,1.19987 0.39996,1.99978 0,1.27986 -0.41995,2.33974 -1.25986,3.17965 -0.81991,0.8799 -2.11977,1.33985 -3.87958,1.37985 -0.8599,-0.02 -1.55983,-0.15998 -2.09977,-0.39996 -0.53994,-0.19997 -0.95989,-0.37995 -1.25986,-0.53994 v -2.81969 c 0.45995,0.27997 0.9399,0.53994 1.43984,0.75992 0.45995,0.23997 1.01989,0.37996 1.65982,0.41995 0.73992,-0.04 1.23987,-0.27997 1.53983,-0.71992 0.31997,-0.39995 0.47995,-0.81991 0.47995,-1.25986 -0.04,-0.97989 -0.39996,-1.63982 -1.09988,-1.95979 -0.73992,-0.31996 -1.49983,-0.45994 -2.25975,-0.43995 -0.37996,0 -0.73992,0.06 -1.11988,0.17998 z"
     fill="#808184"
     id="path30"
     style="stroke-width:1.99978" />
  <path
     d="m 484.91767,274.22153 h -0.08 c -0.29997,0.67993 -0.83991,1.33985 -1.65982,1.95979 -0.43995,0.27996 -0.9599,0.49994 -1.55983,0.67992 -0.59994,0.17998 -1.33985,0.27997 -2.15976,0.33996 -1.75981,-0.04 -3.21965,-0.55993 -4.33953,-1.51983 -1.15987,-1.01989 -1.73981,-2.35974 -1.73981,-4.05955 0.02,-1.75981 0.49995,-3.13966 1.43984,-4.15955 0.89991,-0.97989 1.97979,-1.65982 3.27964,-2.09977 1.31986,-0.41995 2.59972,-0.67992 3.83958,-0.79991 1.27986,-0.11999 2.25976,-0.15998 2.97968,-0.13999 v -2.09977 c 0,-1.09987 -0.17998,-2.03977 -0.53994,-2.77969 -0.39996,-0.71992 -1.17987,-1.09988 -2.35974,-1.13988 -1.25987,0.02 -2.11977,0.39996 -2.55972,1.09988 -0.43996,0.67993 -0.63993,1.41985 -0.61994,2.17976 h -4.65949 c 0,-4.39951 2.61972,-6.65926 7.83915,-6.75925 5.01944,0.02 7.49917,2.23975 7.47918,6.61927 v 15.15834 h -4.5795 z m -8.77904,-22.91749 c -0.02,-2.03977 0.15998,-3.5796 0.57994,-4.5795 0.41995,-1.01988 1.17987,-1.51983 2.31974,-1.51983 0.49995,0 1.01989,0.15998 1.55983,0.45995 0.57994,0.25997 1.13988,0.59994 1.69981,1.01989 0.57994,0.33996 1.07989,0.67992 1.51984,0.97989 0.41995,0.31997 0.75991,0.47995 0.99989,0.47995 0.29997,0.02 0.51994,-0.13999 0.65993,-0.51994 0.06,-0.39996 0.08,-1.05989 0.08,-1.99978 h 2.53972 c 0,2.09977 -0.15998,3.6396 -0.45995,4.63949 -0.37996,0.97989 -1.19987,1.45984 -2.47973,1.45984 -0.57994,0 -1.11988,-0.13999 -1.65982,-0.43996 -0.57993,-0.29996 -1.11987,-0.61993 -1.63982,-0.93989 -0.51994,-0.39996 -0.97989,-0.71992 -1.39984,-0.97989 -0.43996,-0.23998 -0.77992,-0.35997 -1.03989,-0.35997 -0.25997,0 -0.45995,0.15999 -0.57994,0.45995 -0.11998,0.31997 -0.15998,0.9399 -0.15998,1.8598 h -2.53972 z m 1.89979,19.83783 c 0,1.69981 0.85991,2.55972 2.55972,2.55972 0.77992,0 1.45984,-0.21998 2.03978,-0.63993 0.51994,-0.37996 0.95989,-0.87991 1.31985,-1.53983 0.33997,-0.65993 0.59994,-1.33986 0.77992,-2.05978 0.11998,-0.73992 0.15998,-1.47984 0.15998,-2.17976 -1.65982,0 -3.17965,0.27997 -4.5595,0.79991 -0.65993,0.29997 -1.19987,0.69993 -1.61982,1.19987 -0.43995,0.53994 -0.67993,1.13988 -0.67993,1.8598 z"
     fill="#808184"
     id="path31"
     style="stroke-width:1.99978" />
  <path
     d="m 503.7756,277.2012 c -6.03934,-0.13998 -9.079,-3.83958 -9.099,-11.13878 0.02,-7.29919 3.05966,-11.01879 9.099,-11.13877 6.03934,0.11998 9.079,3.81958 9.099,11.13877 -0.02,7.27921 -3.05966,10.9988 -9.099,11.13878 z m -3.99956,-11.13878 c 0,0.9799 0.06,1.91979 0.15998,2.8197 0.08,0.8799 0.25997,1.69981 0.51994,2.43973 0.29997,0.71992 0.71992,1.27986 1.27986,1.69981 0.51995,0.45995 1.19987,0.67993 2.03978,0.67993 0.85991,0 1.57983,-0.21998 2.11977,-0.67993 0.51994,-0.41995 0.9199,-0.97989 1.17987,-1.69981 0.27997,-0.73992 0.47995,-1.55983 0.59993,-2.43973 0.06,-0.89991 0.08,-1.8398 0.08,-2.8197 0.02,-2.09976 -0.19997,-3.87957 -0.67992,-5.35941 -0.25997,-0.71992 -0.65993,-1.27986 -1.17987,-1.69981 -0.55994,-0.37996 -1.25986,-0.57994 -2.11977,-0.57994 -0.83991,0 -1.51983,0.19998 -2.03978,0.57994 -0.55994,0.41995 -0.97989,0.97989 -1.27986,1.69981 -0.47994,1.47984 -0.69992,3.27964 -0.67992,5.35941 z"
     fill="#808184"
     id="path32"
     style="stroke-width:1.99978" />
  <path
     d="m 97.9644,229.11 c 1.54,-0.27 2.8496,-0.74 3.8996,-1.4 1,-0.63 1.8,-1.65 2.38,-3.01 0.58,-1.3 0.87,-3.12 0.87,-5.43 0,-2.37 -0.26,-4.27 -0.79,-5.64 -0.55,-1.15 -1.33,-2.05 -2.35,-2.67 -1.11,-0.79 -2.3896,-1.3 -3.8996,-1.57 -0.82,-0.14 -1.65,-0.2 -2.44,-0.2 h -7.08 v 20.4 h 3.95 c 1.94,0.01 3.77,-0.16 5.46,-0.48 z"
     fill="#0a846c"
     id="path33" />
  <path
     d="m 104.884,244.46 c -2.94,-1.91 -7.0996,-2.9 -12.3396,-2.9 h -3.9699 v 25.03 h 3.9699 c 2.1,0 4.2001,-0.18 6.2601,-0.54 1.9495,-0.28 3.7295,-0.85 5.3395,-1.71 1.46,-0.86 2.67,-2.13 3.58,-3.74 0.87,-1.55 1.31,-3.65 1.31,-6.25 -0.08,-4.76 -1.44,-8 -4.15,-9.89 z"
     fill="#0a846c"
     id="path34" />
  <path
     d="m 196.984,149.31 c -33.8,37.41 -145.6396,44.17 -196.97960547,-24.33 0,13.26 0,119.74 0,163.2 H 201.564 c 0,-11.15 0,-78.05 0,-117.06 -0.76,-7.95 -2.32,-15.21 -4.58,-21.81 z M 52.1044,273.85 c -5.27,3.98 -12.38,5.99 -21.13,5.99 h -0.03 c -5,-0.11 -9.54,-0.63 -13.5,-1.54 -3.93,-0.93 -6.56,-1.54 -7.89,-1.84 l -0.97,-0.22 v -17.11 l 1.92,1.23 c 2.32,1.49 5.3,3.08 8.84,4.72 3.56,1.78 7.65,2.72 12.17,2.79 4.59,-0.07 7.84,-1.16 9.65,-3.25 1.65,-1.97 2.46,-4.1 2.46,-6.5 -0.07,-3.88 -1.74,-6.99 -5.13,-9.49 -3.55,-2.71 -7.7,-5.34 -12.35,-7.83 -4.83,-2.53 -9.15,-5.58 -12.83,-9.07 -3.98001,-3.59 -6.05001,-8.36 -6.13001,-14.17 0.07,-7.51 2.87001,-13.09 8.30001,-16.63 5.13,-3.32 11.58,-5 19.18,-5 4.41,0 8.39,0.29 11.83,0.85 3.33,0.52 5.75,0.98 7.2,1.36 l 0.93,0.25 v 15.28 l -1.76,-0.8 c -2.48,-1.13 -5.31,-2.24 -8.43,-3.3 -3.04,-1.03 -6.48,-1.59 -10.23,-1.66 -3.01,0 -5.49,0.69 -7.36,2.05 -1.96,1.32 -2.9,3.41 -2.9,6.42 0,1.42 0.45,2.66 1.39,3.78 1,1.43 2.27,2.72 3.86,3.94 3.53,2.38 7.71,4.85 12.37,7.31 4.82,2.58 9.12,5.77 12.79,9.49 3.89,3.94 5.92,9.07 6.04,15.25 -0.12,7.74 -2.91,13.68 -8.29,17.7 z m 70.1096,-6.33 c -1.66,3.18 -3.93,5.57 -6.73,7.1 -2.61,1.5 -5.51,2.56 -8.59,3.14 -3.11,0.53 -6.11,0.8 -8.9496,0.8 h -24.8 v -81.34 h 24.73 c 2.1596,0 4.5696,0.19 7.1396,0.57 2.64,0.39 5.17,1.34 7.54,2.79 2.34,1.31 4.35,3.36 5.93,6.07 1.51,2.69 2.28,6.16 2.28,10.34 0,3.26 -0.45,6.06 -1.33,8.32 -0.93,2.29 -2.17,4.19 -3.69,5.68 -1.77,1.61 -3.49,2.88 -5.15,3.82 0.69,0.18 1.39,0.4 2.09,0.65 2.1,0.81 4.03,2.04 5.77,3.67 1.8,1.53 3.33,3.68 4.53,6.37 1.12,2.58 1.69,5.93 1.69,9.99 -0.07,5 -0.9,9.04 -2.46,12.03 z m 70.15,-46.2 h -16.88 v -1.25 c 0,-1.56 -0.07,-3.14 -0.21,-4.69 -0.24,-1.32 -0.75,-2.64 -1.48,-3.8 -0.65,-1.17 -1.57,-2.05 -2.85,-2.76 -1.29,-0.58 -3.17,-0.9 -5.5,-0.9 -2.97,0.07 -5.41,0.9 -7.23,2.49 -1.93,1.62 -3.41,3.78 -4.41,6.43 -1.08,2.8 -1.83,5.83 -2.25,9 -0.46,3.28 -0.69,6.53 -0.69,9.67 -0.07,9.29 1.44,16.95 4.51,22.77 2.91,5.73 7.84,8.54 15.07,8.61 4.19,-0.07 7.85,-0.87 10.83,-2.38 3.14,-1.44 5.25,-2.52 6.3,-3.22 l 1.94,-1.29 v 14.91 l -0.77,0.32 c -0.93,0.38 -2.06,0.8 -3.37,1.25 -1.45,0.62 -3.16,1.18 -5.03,1.64 -3.71,1.05 -8.06,1.64 -12.86,1.76 h -0.02 -0.02 c -11.37,-0.11 -19.86,-4.11 -25.23,-11.86 -5.38,-7.57 -8.11,-17.82 -8.11,-30.45 -0.08,-12.05 2.34,-22 7.17,-29.58 4.86,-7.78 12.99,-11.82 24.17,-12.02 9.21,0.12 16.08,2.52 20.44,7.15 4.32,4.66 6.5,10.37 6.5,16.99 v 1.21 z"
     fill="#0a846c"
     id="path35" />
  <path
     d="M 46.6344,-4.4568501e-7 H 0.00444444 c 0,0 -0.01,43.79000044568501 0,66.080000445685 C 3.00444,22.44 46.6344,-4.4568501e-7 46.6344,-4.4568501e-7 Z"
     fill="#f5c414"
     id="path36" />
  <path
     d="m 224.844,83.51 c -3.27,4.74 -9.29,10.89 -17.66,17 2.45,3.29 4.42,6.64 5.96,10 8.71,-13.5 12.06,-25.01 11.7,-27 z"
     fill="#1479be"
     id="path37" />
  <path
     d="m 67.5544,122.61 c -11.68,-6.79 -18.96,-12.29 -25.27,-19.47 -3.11,1.51 -10.79,5.8 -14.19,6.83 2.38,-2.97 7.88,-8.34 10.91,-10.6 C 6.99443,61.6 41.4944,22.52 58.1944,7.7499996 14.1144,25.9 -30.8456,115.7 50.6244,155.56 c 63.1996,24.17 111.6996,13.08 137.3596,-10.68 -3.04,-6.73 -6.85,-12.7 -11.29,-17.96 -28.25,12.61 -62.74,16.1 -109.1396,-4.31 z"
     fill="#1479be"
     id="path38" />
</svg>
